M48
;DRILL file {KiCad 4.0.7-e2-6376~58~ubuntu16.04.1} date Sat Jan 20 15:28:53 2018
;FORMAT={-:-/ absolute / metric / decimal}
FMAT,2
METRIC,TZ
T1C0.330
T2C0.700
T3C0.800
T4C1.000
T5C1.298
T6C1.300
T7C3.200
%
G90
G05
M71
T1
X5.08Y-15.24
X6.858Y-19.685
X10.541Y-3.937
X10.922Y-16.891
T2
X2.413Y-8.636
X2.413Y-10.636
X2.413Y-12.636
T3
X5.969Y-9.271
X5.969Y-11.811
X13.589Y-9.271
X13.589Y-11.811
T4
X7.493Y-2.667
X7.493Y-5.207
X20.111Y-4.718
X20.111Y-16.718
T5
X41.783Y-5.621
X41.783Y-10.622
X41.783Y-15.621
T6
X18.161Y-10.668
X32.311Y-16.718
X32.361Y-4.668
T7
X14.605Y-2.921
X14.605Y-18.415
T0
M30
