%TF.GenerationSoftware,KiCad,Pcbnew,4.0.7-e2-6376~58~ubuntu16.04.1*%
%TF.CreationDate,2018-01-20T15:27:38+01:00*%
%TF.ProjectId,RelayModule,52656C61794D6F64756C652E6B696361,rev?*%
%TF.FileFunction,Other,Fab,Top*%
%FSLAX46Y46*%
G04 Gerber Fmt 4.6, Leading zero omitted, Abs format (unit mm)*
G04 Created by KiCad (PCBNEW 4.0.7-e2-6376~58~ubuntu16.04.1) date Sat Jan 20 15:27:38 2018*
%MOMM*%
%LPD*%
G01*
G04 APERTURE LIST*
%ADD10C,0.100000*%
%ADD11C,0.150000*%
G04 APERTURE END LIST*
D10*
X4083000Y-5099000D02*
X4083000Y-4299000D01*
X4083000Y-4699000D02*
X3483000Y-5099000D01*
X3483000Y-4299000D02*
X4083000Y-4699000D01*
X3483000Y-5099000D02*
X3483000Y-4299000D01*
X2683000Y-4099000D02*
X4683000Y-4099000D01*
X2683000Y-5299000D02*
X2683000Y-4099000D01*
X4683000Y-5299000D02*
X2683000Y-5299000D01*
X4683000Y-4099000D02*
X4683000Y-5299000D01*
X3537000Y-15983000D02*
X3537000Y-16783000D01*
X3537000Y-16383000D02*
X4137000Y-15983000D01*
X4137000Y-16783000D02*
X3537000Y-16383000D01*
X4137000Y-15983000D02*
X4137000Y-16783000D01*
X4937000Y-16983000D02*
X2937000Y-16983000D01*
X4937000Y-15783000D02*
X4937000Y-16983000D01*
X2937000Y-15783000D02*
X4937000Y-15783000D01*
X2937000Y-16983000D02*
X2937000Y-15783000D01*
X10541000Y-3687000D02*
X10541000Y-3187000D01*
X10941000Y-3687000D02*
X10541000Y-4287000D01*
X10141000Y-3687000D02*
X10941000Y-3687000D01*
X10541000Y-4287000D02*
X10141000Y-3687000D01*
X10541000Y-4287000D02*
X11091000Y-4287000D01*
X10541000Y-4287000D02*
X9991000Y-4287000D01*
X10541000Y-4687000D02*
X10541000Y-4287000D01*
X11441000Y-5337000D02*
X9641000Y-5337000D01*
X11441000Y-2537000D02*
X11441000Y-5337000D01*
X9641000Y-2537000D02*
X11441000Y-2537000D01*
X9641000Y-5337000D02*
X9641000Y-2537000D01*
X6223000Y-1397000D02*
X6223000Y-6477000D01*
X6223000Y-6477000D02*
X8763000Y-6477000D01*
X8763000Y-6477000D02*
X8763000Y-1397000D01*
X8763000Y-1397000D02*
X6223000Y-1397000D01*
D11*
X9775000Y-18861000D02*
X6735000Y-18861000D01*
X6735000Y-17461000D02*
X6735000Y-18861000D01*
X9775000Y-17461000D02*
X9775000Y-18861000D01*
X9775000Y-17461000D02*
X6735000Y-17461000D01*
D10*
X4683000Y-1788000D02*
X4683000Y-3038000D01*
X2683000Y-1788000D02*
X4683000Y-1788000D01*
X2683000Y-3038000D02*
X2683000Y-1788000D01*
X4683000Y-3038000D02*
X2683000Y-3038000D01*
X4683000Y-18044000D02*
X4683000Y-19294000D01*
X2683000Y-18044000D02*
X4683000Y-18044000D01*
X2683000Y-19294000D02*
X2683000Y-18044000D01*
X4683000Y-19294000D02*
X2683000Y-19294000D01*
X7255000Y-15738000D02*
X7255000Y-14488000D01*
X9255000Y-15738000D02*
X7255000Y-15738000D01*
X9255000Y-14488000D02*
X9255000Y-15738000D01*
X7255000Y-14488000D02*
X9255000Y-14488000D01*
X7604000Y-8001000D02*
X12954000Y-8001000D01*
X12954000Y-8001000D02*
X12954000Y-13081000D01*
X12954000Y-13081000D02*
X6604000Y-13081000D01*
X6604000Y-13081000D02*
X6604000Y-9001000D01*
X6604000Y-9001000D02*
X7604000Y-8001000D01*
M02*
