%TF.GenerationSoftware,KiCad,Pcbnew,4.0.7-e2-6376~58~ubuntu16.04.1*%
%TF.CreationDate,2018-01-20T15:27:38+01:00*%
%TF.ProjectId,RelayModule,52656C61794D6F64756C652E6B696361,rev?*%
%TF.FileFunction,Legend,Top*%
%FSLAX46Y46*%
G04 Gerber Fmt 4.6, Leading zero omitted, Abs format (unit mm)*
G04 Created by KiCad (PCBNEW 4.0.7-e2-6376~58~ubuntu16.04.1) date Sat Jan 20 15:27:38 2018*
%MOMM*%
%LPD*%
G01*
G04 APERTURE LIST*
%ADD10C,0.100000*%
%ADD11C,0.127000*%
%ADD12C,0.200000*%
%ADD13C,0.120000*%
%ADD14C,0.150000*%
%ADD15C,0.010000*%
G04 APERTURE END LIST*
D10*
D11*
X1477929Y-16697285D02*
X877929Y-16697285D01*
X1477929Y-16411571D02*
X877929Y-16411571D01*
X1477929Y-16068714D01*
X877929Y-16068714D01*
X1541429Y-5499000D02*
X941429Y-5499000D01*
X941429Y-5270428D01*
X970000Y-5213286D01*
X998571Y-5184714D01*
X1055714Y-5156143D01*
X1141429Y-5156143D01*
X1198571Y-5184714D01*
X1227143Y-5213286D01*
X1255714Y-5270428D01*
X1255714Y-5499000D01*
X941429Y-4956143D02*
X1541429Y-4813286D01*
X1112857Y-4699000D01*
X1541429Y-4584714D01*
X941429Y-4441857D01*
X1541429Y-3870429D02*
X1255714Y-4070429D01*
X1541429Y-4213286D02*
X941429Y-4213286D01*
X941429Y-3984714D01*
X970000Y-3927572D01*
X998571Y-3899000D01*
X1055714Y-3870429D01*
X1141429Y-3870429D01*
X1198571Y-3899000D01*
X1227143Y-3927572D01*
X1255714Y-3984714D01*
X1255714Y-4213286D01*
X6616810Y-6940571D02*
X6807286Y-7473905D01*
X6997762Y-6940571D01*
X7645381Y-7435810D02*
X7569191Y-7473905D01*
X7416810Y-7473905D01*
X7340619Y-7435810D01*
X7302524Y-7397714D01*
X7264429Y-7321524D01*
X7264429Y-7092952D01*
X7302524Y-7016762D01*
X7340619Y-6978667D01*
X7416810Y-6940571D01*
X7569191Y-6940571D01*
X7645381Y-6978667D01*
X8331095Y-7435810D02*
X8254905Y-7473905D01*
X8102524Y-7473905D01*
X8026333Y-7435810D01*
X7988238Y-7397714D01*
X7950143Y-7321524D01*
X7950143Y-7092952D01*
X7988238Y-7016762D01*
X8026333Y-6978667D01*
X8102524Y-6940571D01*
X8254905Y-6940571D01*
X8331095Y-6978667D01*
D12*
X46942476Y-16073381D02*
X46942476Y-15073381D01*
X47513905Y-16073381D01*
X47513905Y-15073381D01*
X48180571Y-15073381D02*
X48371048Y-15073381D01*
X48466286Y-15121000D01*
X48561524Y-15216238D01*
X48609143Y-15406714D01*
X48609143Y-15740048D01*
X48561524Y-15930524D01*
X48466286Y-16025762D01*
X48371048Y-16073381D01*
X48180571Y-16073381D01*
X48085333Y-16025762D01*
X47990095Y-15930524D01*
X47942476Y-15740048D01*
X47942476Y-15406714D01*
X47990095Y-15216238D01*
X48085333Y-15121000D01*
X48180571Y-15073381D01*
X46966286Y-6040381D02*
X46966286Y-5040381D01*
X47537715Y-6040381D01*
X47537715Y-5040381D01*
X48585334Y-5945143D02*
X48537715Y-5992762D01*
X48394858Y-6040381D01*
X48299620Y-6040381D01*
X48156762Y-5992762D01*
X48061524Y-5897524D01*
X48013905Y-5802286D01*
X47966286Y-5611810D01*
X47966286Y-5468952D01*
X48013905Y-5278476D01*
X48061524Y-5183238D01*
X48156762Y-5088000D01*
X48299620Y-5040381D01*
X48394858Y-5040381D01*
X48537715Y-5088000D01*
X48585334Y-5135619D01*
X48061524Y-10961643D02*
X48013905Y-11009262D01*
X47871048Y-11056881D01*
X47775810Y-11056881D01*
X47632952Y-11009262D01*
X47537714Y-10914024D01*
X47490095Y-10818786D01*
X47442476Y-10628310D01*
X47442476Y-10485452D01*
X47490095Y-10294976D01*
X47537714Y-10199738D01*
X47632952Y-10104500D01*
X47775810Y-10056881D01*
X47871048Y-10056881D01*
X48013905Y-10104500D01*
X48061524Y-10152119D01*
D13*
X5483000Y-5399000D02*
X5483000Y-3999000D01*
X5483000Y-3999000D02*
X2683000Y-3999000D01*
X5483000Y-5399000D02*
X2683000Y-5399000D01*
X2137000Y-15683000D02*
X2137000Y-17083000D01*
X2137000Y-17083000D02*
X4937000Y-17083000D01*
X2137000Y-15683000D02*
X4937000Y-15683000D01*
X9541000Y-6187000D02*
X11541000Y-6187000D01*
X11541000Y-6187000D02*
X11541000Y-2287000D01*
X9541000Y-6187000D02*
X9541000Y-2287000D01*
X6103000Y-3937000D02*
X6103000Y-6597000D01*
X6103000Y-6597000D02*
X8883000Y-6597000D01*
X8883000Y-6597000D02*
X8883000Y-3937000D01*
X8883000Y-3937000D02*
X6103000Y-3937000D01*
X6103000Y-2667000D02*
X6103000Y-1277000D01*
X6103000Y-1277000D02*
X7493000Y-1277000D01*
X6675000Y-18921000D02*
X7605000Y-18921000D01*
X9835000Y-18921000D02*
X8905000Y-18921000D01*
X9835000Y-18921000D02*
X9835000Y-16761000D01*
X6675000Y-18921000D02*
X6675000Y-17461000D01*
D14*
X3083000Y-1538000D02*
X4283000Y-1538000D01*
X4283000Y-3288000D02*
X3083000Y-3288000D01*
X3083000Y-17794000D02*
X4283000Y-17794000D01*
X4283000Y-19544000D02*
X3083000Y-19544000D01*
X8855000Y-15988000D02*
X7655000Y-15988000D01*
X7655000Y-14238000D02*
X8855000Y-14238000D01*
D13*
X10779000Y-7881000D02*
G75*
G02X8779000Y-7881000I-1000000J0D01*
G01*
X8779000Y-7881000D02*
X7009000Y-7881000D01*
X7009000Y-7881000D02*
X7009000Y-13201000D01*
X7009000Y-13201000D02*
X12549000Y-13201000D01*
X12549000Y-13201000D02*
X12549000Y-7881000D01*
X12549000Y-7881000D02*
X10779000Y-7881000D01*
D15*
G36*
X26717790Y-19110324D02*
X26727572Y-19140005D01*
X26732637Y-19157950D01*
X26742742Y-19177284D01*
X26752550Y-19189700D01*
X26766729Y-19208108D01*
X26769802Y-19215100D01*
X26774977Y-19233447D01*
X26789349Y-19270472D01*
X26811236Y-19321901D01*
X26817347Y-19335750D01*
X26831437Y-19368078D01*
X26840234Y-19389401D01*
X26841450Y-19392900D01*
X26847110Y-19407400D01*
X26859525Y-19436377D01*
X26865552Y-19450050D01*
X26892492Y-19511172D01*
X26909942Y-19551808D01*
X26917347Y-19570664D01*
X26917357Y-19570700D01*
X26923198Y-19585206D01*
X26935722Y-19614193D01*
X26941752Y-19627850D01*
X26969557Y-19690952D01*
X26986779Y-19731205D01*
X26993425Y-19748500D01*
X26999257Y-19762802D01*
X27012220Y-19792170D01*
X27021192Y-19812000D01*
X27045199Y-19866640D01*
X27058056Y-19901137D01*
X27060588Y-19917744D01*
X27060177Y-19918749D01*
X27065602Y-19930515D01*
X27081543Y-19950366D01*
X27095608Y-19969247D01*
X27095450Y-19977100D01*
X27094637Y-19984778D01*
X27105276Y-19999325D01*
X27121541Y-20020356D01*
X27126642Y-20030941D01*
X27134826Y-20059674D01*
X27154623Y-20108426D01*
X27169707Y-20142200D01*
X27184952Y-20176947D01*
X27194661Y-20201597D01*
X27196410Y-20207816D01*
X27202465Y-20223987D01*
X27214277Y-20220470D01*
X27228516Y-20201298D01*
X27241850Y-20170501D01*
X27248823Y-20144383D01*
X27256868Y-20118138D01*
X27261649Y-20106283D01*
X27270748Y-20085031D01*
X27273217Y-20078700D01*
X27279629Y-20061897D01*
X27291416Y-20032150D01*
X27304356Y-20000029D01*
X27313804Y-19977100D01*
X27322142Y-19956743D01*
X27324050Y-19951700D01*
X27330486Y-19935974D01*
X27335650Y-19924116D01*
X27345312Y-19896401D01*
X27347610Y-19886016D01*
X27356399Y-19860646D01*
X27362139Y-19850100D01*
X27374582Y-19820803D01*
X27377910Y-19806646D01*
X27386476Y-19778929D01*
X27392497Y-19768546D01*
X27402955Y-19748358D01*
X27415735Y-19714910D01*
X27419300Y-19704050D01*
X27431653Y-19669122D01*
X27442805Y-19644386D01*
X27445275Y-19640550D01*
X27454861Y-19624287D01*
X27455500Y-19621500D01*
X27456655Y-19614746D01*
X27460819Y-19601315D01*
X27469649Y-19576470D01*
X27484805Y-19535471D01*
X27497736Y-19500850D01*
X27512692Y-19460560D01*
X27523582Y-19430637D01*
X27527812Y-19418300D01*
X27533317Y-19402872D01*
X27544749Y-19373435D01*
X27558375Y-19339474D01*
X27567804Y-19316700D01*
X27575754Y-19296368D01*
X27577349Y-19291300D01*
X27582369Y-19277296D01*
X27594375Y-19245737D01*
X27611047Y-19202701D01*
X27616127Y-19189700D01*
X27633204Y-19144147D01*
X27645416Y-19107832D01*
X27650690Y-19087052D01*
X27650655Y-19084925D01*
X27661388Y-19081182D01*
X27692630Y-19078130D01*
X27739494Y-19076095D01*
X27793949Y-19075400D01*
X27852945Y-19076368D01*
X27900041Y-19079022D01*
X27930562Y-19082979D01*
X27940000Y-19087273D01*
X27935827Y-19107480D01*
X27928821Y-19128548D01*
X27919697Y-19154883D01*
X27916378Y-19167608D01*
X27910151Y-19184599D01*
X27896733Y-19212797D01*
X27895550Y-19215100D01*
X27881783Y-19243697D01*
X27874833Y-19261940D01*
X27874721Y-19262591D01*
X27869790Y-19280799D01*
X27861901Y-19304000D01*
X27849332Y-19338964D01*
X27843055Y-19358077D01*
X27840499Y-19369290D01*
X27840274Y-19370808D01*
X27833980Y-19387793D01*
X27820522Y-19416019D01*
X27819281Y-19418433D01*
X27808412Y-19443729D01*
X27807418Y-19456142D01*
X27808292Y-19456400D01*
X27807417Y-19464258D01*
X27793950Y-19481800D01*
X27780038Y-19500127D01*
X27779607Y-19507200D01*
X27780343Y-19516915D01*
X27770847Y-19540744D01*
X27768618Y-19545166D01*
X27755664Y-19571677D01*
X27750112Y-19585983D01*
X27750135Y-19586441D01*
X27746928Y-19599402D01*
X27737591Y-19626946D01*
X27725321Y-19660033D01*
X27715295Y-19685000D01*
X27707456Y-19705323D01*
X27705952Y-19710400D01*
X27699064Y-19725906D01*
X27697021Y-19729450D01*
X27689169Y-19747837D01*
X27676911Y-19781979D01*
X27666950Y-19812000D01*
X27653433Y-19852272D01*
X27642055Y-19883012D01*
X27636878Y-19894550D01*
X27628576Y-19911493D01*
X27627980Y-19913600D01*
X27622853Y-19928671D01*
X27612164Y-19956466D01*
X27611534Y-19958050D01*
X27597085Y-19995055D01*
X27590230Y-20015505D01*
X27588800Y-20026295D01*
X27589191Y-20029123D01*
X27583644Y-20044249D01*
X27576555Y-20054523D01*
X27564972Y-20076045D01*
X27550164Y-20112606D01*
X27539950Y-20142200D01*
X27526150Y-20182504D01*
X27514046Y-20213251D01*
X27508174Y-20224750D01*
X27498652Y-20244222D01*
X27486397Y-20277190D01*
X27482787Y-20288250D01*
X27471000Y-20323127D01*
X27461236Y-20347863D01*
X27459264Y-20351750D01*
X27449983Y-20374507D01*
X27449398Y-20377150D01*
X27443209Y-20396169D01*
X27430749Y-20427745D01*
X27426670Y-20437414D01*
X27413965Y-20468768D01*
X27407116Y-20488942D01*
X27406712Y-20491522D01*
X27401720Y-20506160D01*
X27389021Y-20533032D01*
X27387550Y-20535900D01*
X27373783Y-20564497D01*
X27366833Y-20582740D01*
X27366721Y-20583391D01*
X27361302Y-20602926D01*
X27349948Y-20635628D01*
X27336286Y-20671137D01*
X27334454Y-20675600D01*
X27325398Y-20700259D01*
X27323297Y-20707350D01*
X27316431Y-20726079D01*
X27303117Y-20757870D01*
X27297412Y-20770850D01*
X27283365Y-20803163D01*
X27274730Y-20824488D01*
X27273599Y-20828000D01*
X27266396Y-20841251D01*
X27249197Y-20868419D01*
X27234728Y-20890224D01*
X27210699Y-20926028D01*
X27191129Y-20955483D01*
X27184350Y-20965858D01*
X27161961Y-20995723D01*
X27132195Y-21029267D01*
X27100795Y-21060755D01*
X27073503Y-21084457D01*
X27056060Y-21094640D01*
X27055283Y-21094700D01*
X27039739Y-21101161D01*
X27038300Y-21105499D01*
X27027853Y-21115728D01*
X27000972Y-21132907D01*
X26964349Y-21153476D01*
X26924672Y-21173876D01*
X26888633Y-21190547D01*
X26862922Y-21199930D01*
X26859476Y-21200640D01*
X26834079Y-21208128D01*
X26828750Y-21210785D01*
X26810418Y-21214826D01*
X26774376Y-21218370D01*
X26728313Y-21220669D01*
X26726820Y-21220712D01*
X26637590Y-21223219D01*
X26638068Y-21102719D01*
X26638887Y-21050043D01*
X26640695Y-21007678D01*
X26643180Y-20981519D01*
X26644748Y-20976151D01*
X26659813Y-20971350D01*
X26692068Y-20965394D01*
X26720800Y-20961349D01*
X26762596Y-20954216D01*
X26794966Y-20945271D01*
X26806525Y-20939553D01*
X26820072Y-20932949D01*
X26822400Y-20935950D01*
X26830288Y-20936861D01*
X26842804Y-20928475D01*
X26871482Y-20908577D01*
X26889887Y-20898241D01*
X26913096Y-20879993D01*
X26940717Y-20849364D01*
X26952028Y-20834245D01*
X26978229Y-20794062D01*
X27006012Y-20747062D01*
X27032647Y-20698496D01*
X27055404Y-20653620D01*
X27071552Y-20617686D01*
X27078363Y-20595949D01*
X27077761Y-20592295D01*
X27069447Y-20576228D01*
X27069438Y-20576116D01*
X27064099Y-20561087D01*
X27050725Y-20530010D01*
X27033065Y-20491450D01*
X27014374Y-20450233D01*
X27000619Y-20417292D01*
X26995020Y-20400656D01*
X26985416Y-20378622D01*
X26978498Y-20368906D01*
X26965367Y-20349168D01*
X26962832Y-20342358D01*
X26953978Y-20312236D01*
X26933285Y-20261690D01*
X26919592Y-20231100D01*
X26904354Y-20196848D01*
X26894549Y-20173209D01*
X26892694Y-20167600D01*
X26885984Y-20152735D01*
X26879712Y-20142200D01*
X26868032Y-20118858D01*
X26865607Y-20110450D01*
X26859526Y-20092181D01*
X26846269Y-20060028D01*
X26837638Y-20040600D01*
X26799483Y-19956330D01*
X26766925Y-19883542D01*
X26741201Y-19825051D01*
X26723546Y-19783670D01*
X26715198Y-19762215D01*
X26714902Y-19761200D01*
X26709040Y-19747295D01*
X26695329Y-19717077D01*
X26677465Y-19678650D01*
X26658843Y-19637796D01*
X26645171Y-19605594D01*
X26639619Y-19589750D01*
X26631447Y-19568656D01*
X26625387Y-19558000D01*
X26614446Y-19538456D01*
X26612272Y-19532600D01*
X26606969Y-19518110D01*
X26594767Y-19489155D01*
X26588747Y-19475450D01*
X26563039Y-19417163D01*
X26546757Y-19379232D01*
X26538741Y-19358924D01*
X26537519Y-19354800D01*
X26530429Y-19339910D01*
X26524112Y-19329400D01*
X26512362Y-19306049D01*
X26509880Y-19297650D01*
X26503725Y-19280304D01*
X26489681Y-19247401D01*
X26472034Y-19208750D01*
X26453719Y-19168719D01*
X26440612Y-19138154D01*
X26435661Y-19124083D01*
X26427353Y-19108064D01*
X26425525Y-19106091D01*
X26417206Y-19093499D01*
X26423443Y-19084738D01*
X26446898Y-19079204D01*
X26490232Y-19076294D01*
X26556108Y-19075402D01*
X26560807Y-19075399D01*
X26705615Y-19075399D01*
X26717790Y-19110324D01*
X26717790Y-19110324D01*
G37*
X26717790Y-19110324D02*
X26727572Y-19140005D01*
X26732637Y-19157950D01*
X26742742Y-19177284D01*
X26752550Y-19189700D01*
X26766729Y-19208108D01*
X26769802Y-19215100D01*
X26774977Y-19233447D01*
X26789349Y-19270472D01*
X26811236Y-19321901D01*
X26817347Y-19335750D01*
X26831437Y-19368078D01*
X26840234Y-19389401D01*
X26841450Y-19392900D01*
X26847110Y-19407400D01*
X26859525Y-19436377D01*
X26865552Y-19450050D01*
X26892492Y-19511172D01*
X26909942Y-19551808D01*
X26917347Y-19570664D01*
X26917357Y-19570700D01*
X26923198Y-19585206D01*
X26935722Y-19614193D01*
X26941752Y-19627850D01*
X26969557Y-19690952D01*
X26986779Y-19731205D01*
X26993425Y-19748500D01*
X26999257Y-19762802D01*
X27012220Y-19792170D01*
X27021192Y-19812000D01*
X27045199Y-19866640D01*
X27058056Y-19901137D01*
X27060588Y-19917744D01*
X27060177Y-19918749D01*
X27065602Y-19930515D01*
X27081543Y-19950366D01*
X27095608Y-19969247D01*
X27095450Y-19977100D01*
X27094637Y-19984778D01*
X27105276Y-19999325D01*
X27121541Y-20020356D01*
X27126642Y-20030941D01*
X27134826Y-20059674D01*
X27154623Y-20108426D01*
X27169707Y-20142200D01*
X27184952Y-20176947D01*
X27194661Y-20201597D01*
X27196410Y-20207816D01*
X27202465Y-20223987D01*
X27214277Y-20220470D01*
X27228516Y-20201298D01*
X27241850Y-20170501D01*
X27248823Y-20144383D01*
X27256868Y-20118138D01*
X27261649Y-20106283D01*
X27270748Y-20085031D01*
X27273217Y-20078700D01*
X27279629Y-20061897D01*
X27291416Y-20032150D01*
X27304356Y-20000029D01*
X27313804Y-19977100D01*
X27322142Y-19956743D01*
X27324050Y-19951700D01*
X27330486Y-19935974D01*
X27335650Y-19924116D01*
X27345312Y-19896401D01*
X27347610Y-19886016D01*
X27356399Y-19860646D01*
X27362139Y-19850100D01*
X27374582Y-19820803D01*
X27377910Y-19806646D01*
X27386476Y-19778929D01*
X27392497Y-19768546D01*
X27402955Y-19748358D01*
X27415735Y-19714910D01*
X27419300Y-19704050D01*
X27431653Y-19669122D01*
X27442805Y-19644386D01*
X27445275Y-19640550D01*
X27454861Y-19624287D01*
X27455500Y-19621500D01*
X27456655Y-19614746D01*
X27460819Y-19601315D01*
X27469649Y-19576470D01*
X27484805Y-19535471D01*
X27497736Y-19500850D01*
X27512692Y-19460560D01*
X27523582Y-19430637D01*
X27527812Y-19418300D01*
X27533317Y-19402872D01*
X27544749Y-19373435D01*
X27558375Y-19339474D01*
X27567804Y-19316700D01*
X27575754Y-19296368D01*
X27577349Y-19291300D01*
X27582369Y-19277296D01*
X27594375Y-19245737D01*
X27611047Y-19202701D01*
X27616127Y-19189700D01*
X27633204Y-19144147D01*
X27645416Y-19107832D01*
X27650690Y-19087052D01*
X27650655Y-19084925D01*
X27661388Y-19081182D01*
X27692630Y-19078130D01*
X27739494Y-19076095D01*
X27793949Y-19075400D01*
X27852945Y-19076368D01*
X27900041Y-19079022D01*
X27930562Y-19082979D01*
X27940000Y-19087273D01*
X27935827Y-19107480D01*
X27928821Y-19128548D01*
X27919697Y-19154883D01*
X27916378Y-19167608D01*
X27910151Y-19184599D01*
X27896733Y-19212797D01*
X27895550Y-19215100D01*
X27881783Y-19243697D01*
X27874833Y-19261940D01*
X27874721Y-19262591D01*
X27869790Y-19280799D01*
X27861901Y-19304000D01*
X27849332Y-19338964D01*
X27843055Y-19358077D01*
X27840499Y-19369290D01*
X27840274Y-19370808D01*
X27833980Y-19387793D01*
X27820522Y-19416019D01*
X27819281Y-19418433D01*
X27808412Y-19443729D01*
X27807418Y-19456142D01*
X27808292Y-19456400D01*
X27807417Y-19464258D01*
X27793950Y-19481800D01*
X27780038Y-19500127D01*
X27779607Y-19507200D01*
X27780343Y-19516915D01*
X27770847Y-19540744D01*
X27768618Y-19545166D01*
X27755664Y-19571677D01*
X27750112Y-19585983D01*
X27750135Y-19586441D01*
X27746928Y-19599402D01*
X27737591Y-19626946D01*
X27725321Y-19660033D01*
X27715295Y-19685000D01*
X27707456Y-19705323D01*
X27705952Y-19710400D01*
X27699064Y-19725906D01*
X27697021Y-19729450D01*
X27689169Y-19747837D01*
X27676911Y-19781979D01*
X27666950Y-19812000D01*
X27653433Y-19852272D01*
X27642055Y-19883012D01*
X27636878Y-19894550D01*
X27628576Y-19911493D01*
X27627980Y-19913600D01*
X27622853Y-19928671D01*
X27612164Y-19956466D01*
X27611534Y-19958050D01*
X27597085Y-19995055D01*
X27590230Y-20015505D01*
X27588800Y-20026295D01*
X27589191Y-20029123D01*
X27583644Y-20044249D01*
X27576555Y-20054523D01*
X27564972Y-20076045D01*
X27550164Y-20112606D01*
X27539950Y-20142200D01*
X27526150Y-20182504D01*
X27514046Y-20213251D01*
X27508174Y-20224750D01*
X27498652Y-20244222D01*
X27486397Y-20277190D01*
X27482787Y-20288250D01*
X27471000Y-20323127D01*
X27461236Y-20347863D01*
X27459264Y-20351750D01*
X27449983Y-20374507D01*
X27449398Y-20377150D01*
X27443209Y-20396169D01*
X27430749Y-20427745D01*
X27426670Y-20437414D01*
X27413965Y-20468768D01*
X27407116Y-20488942D01*
X27406712Y-20491522D01*
X27401720Y-20506160D01*
X27389021Y-20533032D01*
X27387550Y-20535900D01*
X27373783Y-20564497D01*
X27366833Y-20582740D01*
X27366721Y-20583391D01*
X27361302Y-20602926D01*
X27349948Y-20635628D01*
X27336286Y-20671137D01*
X27334454Y-20675600D01*
X27325398Y-20700259D01*
X27323297Y-20707350D01*
X27316431Y-20726079D01*
X27303117Y-20757870D01*
X27297412Y-20770850D01*
X27283365Y-20803163D01*
X27274730Y-20824488D01*
X27273599Y-20828000D01*
X27266396Y-20841251D01*
X27249197Y-20868419D01*
X27234728Y-20890224D01*
X27210699Y-20926028D01*
X27191129Y-20955483D01*
X27184350Y-20965858D01*
X27161961Y-20995723D01*
X27132195Y-21029267D01*
X27100795Y-21060755D01*
X27073503Y-21084457D01*
X27056060Y-21094640D01*
X27055283Y-21094700D01*
X27039739Y-21101161D01*
X27038300Y-21105499D01*
X27027853Y-21115728D01*
X27000972Y-21132907D01*
X26964349Y-21153476D01*
X26924672Y-21173876D01*
X26888633Y-21190547D01*
X26862922Y-21199930D01*
X26859476Y-21200640D01*
X26834079Y-21208128D01*
X26828750Y-21210785D01*
X26810418Y-21214826D01*
X26774376Y-21218370D01*
X26728313Y-21220669D01*
X26726820Y-21220712D01*
X26637590Y-21223219D01*
X26638068Y-21102719D01*
X26638887Y-21050043D01*
X26640695Y-21007678D01*
X26643180Y-20981519D01*
X26644748Y-20976151D01*
X26659813Y-20971350D01*
X26692068Y-20965394D01*
X26720800Y-20961349D01*
X26762596Y-20954216D01*
X26794966Y-20945271D01*
X26806525Y-20939553D01*
X26820072Y-20932949D01*
X26822400Y-20935950D01*
X26830288Y-20936861D01*
X26842804Y-20928475D01*
X26871482Y-20908577D01*
X26889887Y-20898241D01*
X26913096Y-20879993D01*
X26940717Y-20849364D01*
X26952028Y-20834245D01*
X26978229Y-20794062D01*
X27006012Y-20747062D01*
X27032647Y-20698496D01*
X27055404Y-20653620D01*
X27071552Y-20617686D01*
X27078363Y-20595949D01*
X27077761Y-20592295D01*
X27069447Y-20576228D01*
X27069438Y-20576116D01*
X27064099Y-20561087D01*
X27050725Y-20530010D01*
X27033065Y-20491450D01*
X27014374Y-20450233D01*
X27000619Y-20417292D01*
X26995020Y-20400656D01*
X26985416Y-20378622D01*
X26978498Y-20368906D01*
X26965367Y-20349168D01*
X26962832Y-20342358D01*
X26953978Y-20312236D01*
X26933285Y-20261690D01*
X26919592Y-20231100D01*
X26904354Y-20196848D01*
X26894549Y-20173209D01*
X26892694Y-20167600D01*
X26885984Y-20152735D01*
X26879712Y-20142200D01*
X26868032Y-20118858D01*
X26865607Y-20110450D01*
X26859526Y-20092181D01*
X26846269Y-20060028D01*
X26837638Y-20040600D01*
X26799483Y-19956330D01*
X26766925Y-19883542D01*
X26741201Y-19825051D01*
X26723546Y-19783670D01*
X26715198Y-19762215D01*
X26714902Y-19761200D01*
X26709040Y-19747295D01*
X26695329Y-19717077D01*
X26677465Y-19678650D01*
X26658843Y-19637796D01*
X26645171Y-19605594D01*
X26639619Y-19589750D01*
X26631447Y-19568656D01*
X26625387Y-19558000D01*
X26614446Y-19538456D01*
X26612272Y-19532600D01*
X26606969Y-19518110D01*
X26594767Y-19489155D01*
X26588747Y-19475450D01*
X26563039Y-19417163D01*
X26546757Y-19379232D01*
X26538741Y-19358924D01*
X26537519Y-19354800D01*
X26530429Y-19339910D01*
X26524112Y-19329400D01*
X26512362Y-19306049D01*
X26509880Y-19297650D01*
X26503725Y-19280304D01*
X26489681Y-19247401D01*
X26472034Y-19208750D01*
X26453719Y-19168719D01*
X26440612Y-19138154D01*
X26435661Y-19124083D01*
X26427353Y-19108064D01*
X26425525Y-19106091D01*
X26417206Y-19093499D01*
X26423443Y-19084738D01*
X26446898Y-19079204D01*
X26490232Y-19076294D01*
X26556108Y-19075402D01*
X26560807Y-19075399D01*
X26705615Y-19075399D01*
X26717790Y-19110324D01*
G36*
X26898600Y-20885150D02*
X26892250Y-20891500D01*
X26885900Y-20885150D01*
X26892250Y-20878800D01*
X26898600Y-20885150D01*
X26898600Y-20885150D01*
G37*
X26898600Y-20885150D02*
X26892250Y-20891500D01*
X26885900Y-20885150D01*
X26892250Y-20878800D01*
X26898600Y-20885150D01*
G36*
X28121299Y-20264094D02*
X28150961Y-20270060D01*
X28175637Y-20284950D01*
X28205528Y-20312856D01*
X28208656Y-20315979D01*
X28239495Y-20349368D01*
X28255897Y-20377286D01*
X28262900Y-20410569D01*
X28264630Y-20436390D01*
X28261463Y-20498545D01*
X28242843Y-20548377D01*
X28204853Y-20595505D01*
X28196472Y-20603668D01*
X28151879Y-20631223D01*
X28095265Y-20646146D01*
X28036985Y-20647004D01*
X27987806Y-20632585D01*
X27951730Y-20611648D01*
X27923008Y-20592459D01*
X27906716Y-20578699D01*
X27906979Y-20574000D01*
X27908934Y-20566167D01*
X27900872Y-20553711D01*
X27881712Y-20515727D01*
X27872637Y-20466418D01*
X27873907Y-20415574D01*
X27885781Y-20372986D01*
X27895667Y-20357969D01*
X27908663Y-20339781D01*
X27907270Y-20332700D01*
X27909942Y-20326415D01*
X27929130Y-20310347D01*
X27946576Y-20297775D01*
X27981672Y-20276994D01*
X28016603Y-20266429D01*
X28062697Y-20263044D01*
X28076450Y-20262962D01*
X28121299Y-20264094D01*
X28121299Y-20264094D01*
G37*
X28121299Y-20264094D02*
X28150961Y-20270060D01*
X28175637Y-20284950D01*
X28205528Y-20312856D01*
X28208656Y-20315979D01*
X28239495Y-20349368D01*
X28255897Y-20377286D01*
X28262900Y-20410569D01*
X28264630Y-20436390D01*
X28261463Y-20498545D01*
X28242843Y-20548377D01*
X28204853Y-20595505D01*
X28196472Y-20603668D01*
X28151879Y-20631223D01*
X28095265Y-20646146D01*
X28036985Y-20647004D01*
X27987806Y-20632585D01*
X27951730Y-20611648D01*
X27923008Y-20592459D01*
X27906716Y-20578699D01*
X27906979Y-20574000D01*
X27908934Y-20566167D01*
X27900872Y-20553711D01*
X27881712Y-20515727D01*
X27872637Y-20466418D01*
X27873907Y-20415574D01*
X27885781Y-20372986D01*
X27895667Y-20357969D01*
X27908663Y-20339781D01*
X27907270Y-20332700D01*
X27909942Y-20326415D01*
X27929130Y-20310347D01*
X27946576Y-20297775D01*
X27981672Y-20276994D01*
X28016603Y-20266429D01*
X28062697Y-20263044D01*
X28076450Y-20262962D01*
X28121299Y-20264094D01*
G36*
X29313951Y-19043838D02*
X29394714Y-19050720D01*
X29466718Y-19066384D01*
X29538045Y-19092762D01*
X29616774Y-19131786D01*
X29641800Y-19145552D01*
X29663067Y-19161081D01*
X29694935Y-19188560D01*
X29732883Y-19223575D01*
X29772390Y-19261714D01*
X29808936Y-19298563D01*
X29838001Y-19329710D01*
X29855066Y-19350742D01*
X29857700Y-19356332D01*
X29864274Y-19372167D01*
X29880797Y-19400062D01*
X29888894Y-19412339D01*
X29913385Y-19455452D01*
X29939177Y-19511681D01*
X29961689Y-19570011D01*
X29976341Y-19619427D01*
X29977663Y-19625839D01*
X29982582Y-19647476D01*
X29985016Y-19653250D01*
X29989439Y-19664938D01*
X29993138Y-19695969D01*
X29995974Y-19740294D01*
X29997807Y-19791862D01*
X29998496Y-19844622D01*
X29997901Y-19892525D01*
X29995884Y-19929522D01*
X29992302Y-19949560D01*
X29991887Y-19950344D01*
X29980653Y-19953857D01*
X29950967Y-19956824D01*
X29901820Y-19959268D01*
X29832204Y-19961209D01*
X29741110Y-19962671D01*
X29627528Y-19963675D01*
X29490451Y-19964243D01*
X29348769Y-19964400D01*
X28714337Y-19964400D01*
X28721517Y-20005155D01*
X28730628Y-20038873D01*
X28742304Y-20062305D01*
X28750470Y-20076217D01*
X28748758Y-20078700D01*
X28746844Y-20087683D01*
X28757598Y-20111210D01*
X28777625Y-20144148D01*
X28803530Y-20181364D01*
X28831919Y-20217724D01*
X28859398Y-20248096D01*
X28863215Y-20251802D01*
X28893682Y-20275674D01*
X28936966Y-20303658D01*
X28984894Y-20331097D01*
X29029293Y-20353336D01*
X29061988Y-20365718D01*
X29063950Y-20366163D01*
X29086378Y-20370484D01*
X29102050Y-20373344D01*
X29129678Y-20381033D01*
X29140628Y-20386125D01*
X29159092Y-20389826D01*
X29195635Y-20392199D01*
X29242972Y-20393267D01*
X29293819Y-20393055D01*
X29340890Y-20391588D01*
X29376901Y-20388891D01*
X29394150Y-20385261D01*
X29416945Y-20377062D01*
X29430851Y-20374151D01*
X29471020Y-20362219D01*
X29519249Y-20340370D01*
X29563713Y-20314496D01*
X29587293Y-20296175D01*
X29609373Y-20277134D01*
X29623116Y-20269200D01*
X29623126Y-20269200D01*
X29637362Y-20261275D01*
X29649964Y-20250150D01*
X29662191Y-20235166D01*
X29661841Y-20231100D01*
X29664061Y-20222920D01*
X29679110Y-20203009D01*
X29680991Y-20200825D01*
X29701288Y-20180915D01*
X29719479Y-20178433D01*
X29744154Y-20188930D01*
X29771841Y-20204933D01*
X29787671Y-20218122D01*
X29787844Y-20218390D01*
X29802183Y-20229519D01*
X29832422Y-20247117D01*
X29864018Y-20263391D01*
X29902463Y-20283615D01*
X29920961Y-20300620D01*
X29920217Y-20320317D01*
X29900935Y-20348614D01*
X29877451Y-20375950D01*
X29856529Y-20402283D01*
X29845503Y-20421120D01*
X29845000Y-20423575D01*
X29834554Y-20432812D01*
X29823833Y-20434300D01*
X29809651Y-20437924D01*
X29810528Y-20442161D01*
X29809429Y-20455507D01*
X29795320Y-20472659D01*
X29776853Y-20484158D01*
X29771262Y-20485100D01*
X29753808Y-20493817D01*
X29743867Y-20503586D01*
X29724401Y-20518717D01*
X29689014Y-20539741D01*
X29644845Y-20563097D01*
X29599030Y-20585226D01*
X29558705Y-20602567D01*
X29531010Y-20611561D01*
X29526329Y-20612100D01*
X29503263Y-20617130D01*
X29497499Y-20620934D01*
X29487210Y-20627876D01*
X29469637Y-20633019D01*
X29440754Y-20636800D01*
X29396539Y-20639653D01*
X29332965Y-20642016D01*
X29292550Y-20643153D01*
X29226495Y-20643874D01*
X29163889Y-20642754D01*
X29112410Y-20640032D01*
X29083000Y-20636613D01*
X29024395Y-20625440D01*
X28984130Y-20616504D01*
X28955490Y-20607861D01*
X28931762Y-20597568D01*
X28912683Y-20587336D01*
X28883928Y-20573250D01*
X28865789Y-20568196D01*
X28863776Y-20568857D01*
X28852320Y-20565389D01*
X28841954Y-20555256D01*
X28821341Y-20539001D01*
X28810363Y-20535900D01*
X28790883Y-20527247D01*
X28771850Y-20510500D01*
X28749543Y-20491460D01*
X28733928Y-20485100D01*
X28718513Y-20476462D01*
X28691434Y-20453632D01*
X28658092Y-20421232D01*
X28652328Y-20415250D01*
X28622031Y-20382289D01*
X28601647Y-20357708D01*
X28594727Y-20345864D01*
X28595407Y-20345400D01*
X28593730Y-20337448D01*
X28578013Y-20317441D01*
X28568650Y-20307300D01*
X28548648Y-20284099D01*
X28541315Y-20270597D01*
X28542842Y-20269200D01*
X28544249Y-20261371D01*
X28534448Y-20246975D01*
X28514253Y-20216929D01*
X28503154Y-20188139D01*
X28502562Y-20180300D01*
X28497618Y-20165562D01*
X28487358Y-20144550D01*
X28473421Y-20113548D01*
X28467222Y-20093750D01*
X28461641Y-20068046D01*
X28453233Y-20030725D01*
X28450814Y-20020172D01*
X28445580Y-19982139D01*
X28442552Y-19927844D01*
X28441599Y-19863792D01*
X28442589Y-19796492D01*
X28445243Y-19735800D01*
X28713174Y-19735800D01*
X29222793Y-19735800D01*
X29349813Y-19735772D01*
X29453710Y-19735613D01*
X29536761Y-19735208D01*
X29601244Y-19734443D01*
X29649437Y-19733201D01*
X29683615Y-19731368D01*
X29706058Y-19728831D01*
X29719041Y-19725473D01*
X29724841Y-19721179D01*
X29725738Y-19715836D01*
X29724384Y-19710508D01*
X29715851Y-19678142D01*
X29710076Y-19650578D01*
X29700602Y-19618653D01*
X29690292Y-19599669D01*
X29682210Y-19585831D01*
X29683941Y-19583400D01*
X29684280Y-19574272D01*
X29672990Y-19550733D01*
X29653872Y-19518545D01*
X29630728Y-19483471D01*
X29607358Y-19451275D01*
X29587565Y-19427720D01*
X29575221Y-19418571D01*
X29559953Y-19410811D01*
X29536044Y-19392429D01*
X29535080Y-19391595D01*
X29512277Y-19374474D01*
X29498612Y-19369160D01*
X29498217Y-19369370D01*
X29485226Y-19365572D01*
X29468508Y-19353423D01*
X29445947Y-19338607D01*
X29416067Y-19324324D01*
X29386994Y-19313704D01*
X29366853Y-19309874D01*
X29362400Y-19312565D01*
X29354658Y-19312289D01*
X29346029Y-19306224D01*
X29326708Y-19300824D01*
X29289348Y-19297680D01*
X29241208Y-19296749D01*
X29189545Y-19297987D01*
X29141617Y-19301351D01*
X29104682Y-19306798D01*
X29100925Y-19307692D01*
X29029385Y-19328049D01*
X28980336Y-19347203D01*
X28950978Y-19366288D01*
X28947886Y-19369448D01*
X28927758Y-19387449D01*
X28916028Y-19392900D01*
X28895933Y-19402512D01*
X28867707Y-19427096D01*
X28836839Y-19460276D01*
X28808823Y-19495672D01*
X28789148Y-19526907D01*
X28783219Y-19547141D01*
X28776574Y-19561504D01*
X28760356Y-19582066D01*
X28745818Y-19600993D01*
X28744928Y-19608800D01*
X28746535Y-19618124D01*
X28739162Y-19635950D01*
X28726005Y-19669698D01*
X28718903Y-19699450D01*
X28713174Y-19735800D01*
X28445243Y-19735800D01*
X28445390Y-19732449D01*
X28449871Y-19678171D01*
X28455899Y-19640164D01*
X28458695Y-19631025D01*
X28466735Y-19606503D01*
X28466487Y-19596102D01*
X28466409Y-19596100D01*
X28467219Y-19586330D01*
X28477529Y-19562374D01*
X28479750Y-19558000D01*
X28490654Y-19532649D01*
X28491696Y-19520170D01*
X28490807Y-19519900D01*
X28491682Y-19512041D01*
X28505150Y-19494500D01*
X28518529Y-19476222D01*
X28517850Y-19469100D01*
X28517200Y-19461376D01*
X28528609Y-19445844D01*
X28542285Y-19426006D01*
X28543199Y-19416133D01*
X28546592Y-19404087D01*
X28562222Y-19386620D01*
X28581199Y-19365549D01*
X28587700Y-19351915D01*
X28596780Y-19334240D01*
X28620854Y-19305271D01*
X28655167Y-19269690D01*
X28694967Y-19232180D01*
X28735502Y-19197424D01*
X28772017Y-19170105D01*
X28772672Y-19169668D01*
X28833902Y-19132593D01*
X28896610Y-19100866D01*
X28952733Y-19078304D01*
X28982798Y-19070185D01*
X29005904Y-19065246D01*
X29013150Y-19062672D01*
X29025560Y-19056803D01*
X29061646Y-19051679D01*
X29119690Y-19047461D01*
X29197974Y-19044306D01*
X29216350Y-19043806D01*
X29313951Y-19043838D01*
X29313951Y-19043838D01*
G37*
X29313951Y-19043838D02*
X29394714Y-19050720D01*
X29466718Y-19066384D01*
X29538045Y-19092762D01*
X29616774Y-19131786D01*
X29641800Y-19145552D01*
X29663067Y-19161081D01*
X29694935Y-19188560D01*
X29732883Y-19223575D01*
X29772390Y-19261714D01*
X29808936Y-19298563D01*
X29838001Y-19329710D01*
X29855066Y-19350742D01*
X29857700Y-19356332D01*
X29864274Y-19372167D01*
X29880797Y-19400062D01*
X29888894Y-19412339D01*
X29913385Y-19455452D01*
X29939177Y-19511681D01*
X29961689Y-19570011D01*
X29976341Y-19619427D01*
X29977663Y-19625839D01*
X29982582Y-19647476D01*
X29985016Y-19653250D01*
X29989439Y-19664938D01*
X29993138Y-19695969D01*
X29995974Y-19740294D01*
X29997807Y-19791862D01*
X29998496Y-19844622D01*
X29997901Y-19892525D01*
X29995884Y-19929522D01*
X29992302Y-19949560D01*
X29991887Y-19950344D01*
X29980653Y-19953857D01*
X29950967Y-19956824D01*
X29901820Y-19959268D01*
X29832204Y-19961209D01*
X29741110Y-19962671D01*
X29627528Y-19963675D01*
X29490451Y-19964243D01*
X29348769Y-19964400D01*
X28714337Y-19964400D01*
X28721517Y-20005155D01*
X28730628Y-20038873D01*
X28742304Y-20062305D01*
X28750470Y-20076217D01*
X28748758Y-20078700D01*
X28746844Y-20087683D01*
X28757598Y-20111210D01*
X28777625Y-20144148D01*
X28803530Y-20181364D01*
X28831919Y-20217724D01*
X28859398Y-20248096D01*
X28863215Y-20251802D01*
X28893682Y-20275674D01*
X28936966Y-20303658D01*
X28984894Y-20331097D01*
X29029293Y-20353336D01*
X29061988Y-20365718D01*
X29063950Y-20366163D01*
X29086378Y-20370484D01*
X29102050Y-20373344D01*
X29129678Y-20381033D01*
X29140628Y-20386125D01*
X29159092Y-20389826D01*
X29195635Y-20392199D01*
X29242972Y-20393267D01*
X29293819Y-20393055D01*
X29340890Y-20391588D01*
X29376901Y-20388891D01*
X29394150Y-20385261D01*
X29416945Y-20377062D01*
X29430851Y-20374151D01*
X29471020Y-20362219D01*
X29519249Y-20340370D01*
X29563713Y-20314496D01*
X29587293Y-20296175D01*
X29609373Y-20277134D01*
X29623116Y-20269200D01*
X29623126Y-20269200D01*
X29637362Y-20261275D01*
X29649964Y-20250150D01*
X29662191Y-20235166D01*
X29661841Y-20231100D01*
X29664061Y-20222920D01*
X29679110Y-20203009D01*
X29680991Y-20200825D01*
X29701288Y-20180915D01*
X29719479Y-20178433D01*
X29744154Y-20188930D01*
X29771841Y-20204933D01*
X29787671Y-20218122D01*
X29787844Y-20218390D01*
X29802183Y-20229519D01*
X29832422Y-20247117D01*
X29864018Y-20263391D01*
X29902463Y-20283615D01*
X29920961Y-20300620D01*
X29920217Y-20320317D01*
X29900935Y-20348614D01*
X29877451Y-20375950D01*
X29856529Y-20402283D01*
X29845503Y-20421120D01*
X29845000Y-20423575D01*
X29834554Y-20432812D01*
X29823833Y-20434300D01*
X29809651Y-20437924D01*
X29810528Y-20442161D01*
X29809429Y-20455507D01*
X29795320Y-20472659D01*
X29776853Y-20484158D01*
X29771262Y-20485100D01*
X29753808Y-20493817D01*
X29743867Y-20503586D01*
X29724401Y-20518717D01*
X29689014Y-20539741D01*
X29644845Y-20563097D01*
X29599030Y-20585226D01*
X29558705Y-20602567D01*
X29531010Y-20611561D01*
X29526329Y-20612100D01*
X29503263Y-20617130D01*
X29497499Y-20620934D01*
X29487210Y-20627876D01*
X29469637Y-20633019D01*
X29440754Y-20636800D01*
X29396539Y-20639653D01*
X29332965Y-20642016D01*
X29292550Y-20643153D01*
X29226495Y-20643874D01*
X29163889Y-20642754D01*
X29112410Y-20640032D01*
X29083000Y-20636613D01*
X29024395Y-20625440D01*
X28984130Y-20616504D01*
X28955490Y-20607861D01*
X28931762Y-20597568D01*
X28912683Y-20587336D01*
X28883928Y-20573250D01*
X28865789Y-20568196D01*
X28863776Y-20568857D01*
X28852320Y-20565389D01*
X28841954Y-20555256D01*
X28821341Y-20539001D01*
X28810363Y-20535900D01*
X28790883Y-20527247D01*
X28771850Y-20510500D01*
X28749543Y-20491460D01*
X28733928Y-20485100D01*
X28718513Y-20476462D01*
X28691434Y-20453632D01*
X28658092Y-20421232D01*
X28652328Y-20415250D01*
X28622031Y-20382289D01*
X28601647Y-20357708D01*
X28594727Y-20345864D01*
X28595407Y-20345400D01*
X28593730Y-20337448D01*
X28578013Y-20317441D01*
X28568650Y-20307300D01*
X28548648Y-20284099D01*
X28541315Y-20270597D01*
X28542842Y-20269200D01*
X28544249Y-20261371D01*
X28534448Y-20246975D01*
X28514253Y-20216929D01*
X28503154Y-20188139D01*
X28502562Y-20180300D01*
X28497618Y-20165562D01*
X28487358Y-20144550D01*
X28473421Y-20113548D01*
X28467222Y-20093750D01*
X28461641Y-20068046D01*
X28453233Y-20030725D01*
X28450814Y-20020172D01*
X28445580Y-19982139D01*
X28442552Y-19927844D01*
X28441599Y-19863792D01*
X28442589Y-19796492D01*
X28445243Y-19735800D01*
X28713174Y-19735800D01*
X29222793Y-19735800D01*
X29349813Y-19735772D01*
X29453710Y-19735613D01*
X29536761Y-19735208D01*
X29601244Y-19734443D01*
X29649437Y-19733201D01*
X29683615Y-19731368D01*
X29706058Y-19728831D01*
X29719041Y-19725473D01*
X29724841Y-19721179D01*
X29725738Y-19715836D01*
X29724384Y-19710508D01*
X29715851Y-19678142D01*
X29710076Y-19650578D01*
X29700602Y-19618653D01*
X29690292Y-19599669D01*
X29682210Y-19585831D01*
X29683941Y-19583400D01*
X29684280Y-19574272D01*
X29672990Y-19550733D01*
X29653872Y-19518545D01*
X29630728Y-19483471D01*
X29607358Y-19451275D01*
X29587565Y-19427720D01*
X29575221Y-19418571D01*
X29559953Y-19410811D01*
X29536044Y-19392429D01*
X29535080Y-19391595D01*
X29512277Y-19374474D01*
X29498612Y-19369160D01*
X29498217Y-19369370D01*
X29485226Y-19365572D01*
X29468508Y-19353423D01*
X29445947Y-19338607D01*
X29416067Y-19324324D01*
X29386994Y-19313704D01*
X29366853Y-19309874D01*
X29362400Y-19312565D01*
X29354658Y-19312289D01*
X29346029Y-19306224D01*
X29326708Y-19300824D01*
X29289348Y-19297680D01*
X29241208Y-19296749D01*
X29189545Y-19297987D01*
X29141617Y-19301351D01*
X29104682Y-19306798D01*
X29100925Y-19307692D01*
X29029385Y-19328049D01*
X28980336Y-19347203D01*
X28950978Y-19366288D01*
X28947886Y-19369448D01*
X28927758Y-19387449D01*
X28916028Y-19392900D01*
X28895933Y-19402512D01*
X28867707Y-19427096D01*
X28836839Y-19460276D01*
X28808823Y-19495672D01*
X28789148Y-19526907D01*
X28783219Y-19547141D01*
X28776574Y-19561504D01*
X28760356Y-19582066D01*
X28745818Y-19600993D01*
X28744928Y-19608800D01*
X28746535Y-19618124D01*
X28739162Y-19635950D01*
X28726005Y-19669698D01*
X28718903Y-19699450D01*
X28713174Y-19735800D01*
X28445243Y-19735800D01*
X28445390Y-19732449D01*
X28449871Y-19678171D01*
X28455899Y-19640164D01*
X28458695Y-19631025D01*
X28466735Y-19606503D01*
X28466487Y-19596102D01*
X28466409Y-19596100D01*
X28467219Y-19586330D01*
X28477529Y-19562374D01*
X28479750Y-19558000D01*
X28490654Y-19532649D01*
X28491696Y-19520170D01*
X28490807Y-19519900D01*
X28491682Y-19512041D01*
X28505150Y-19494500D01*
X28518529Y-19476222D01*
X28517850Y-19469100D01*
X28517200Y-19461376D01*
X28528609Y-19445844D01*
X28542285Y-19426006D01*
X28543199Y-19416133D01*
X28546592Y-19404087D01*
X28562222Y-19386620D01*
X28581199Y-19365549D01*
X28587700Y-19351915D01*
X28596780Y-19334240D01*
X28620854Y-19305271D01*
X28655167Y-19269690D01*
X28694967Y-19232180D01*
X28735502Y-19197424D01*
X28772017Y-19170105D01*
X28772672Y-19169668D01*
X28833902Y-19132593D01*
X28896610Y-19100866D01*
X28952733Y-19078304D01*
X28982798Y-19070185D01*
X29005904Y-19065246D01*
X29013150Y-19062672D01*
X29025560Y-19056803D01*
X29061646Y-19051679D01*
X29119690Y-19047461D01*
X29197974Y-19044306D01*
X29216350Y-19043806D01*
X29313951Y-19043838D01*
G36*
X30848737Y-19048881D02*
X30967922Y-19074658D01*
X31073003Y-19121312D01*
X31164476Y-19189067D01*
X31242837Y-19278150D01*
X31248350Y-19285912D01*
X31275935Y-19329992D01*
X31285349Y-19357282D01*
X31276481Y-19367437D01*
X31274895Y-19367500D01*
X31253020Y-19376442D01*
X31241963Y-19386593D01*
X31222745Y-19401718D01*
X31188084Y-19422498D01*
X31148605Y-19442889D01*
X31095761Y-19464354D01*
X31060778Y-19469022D01*
X31042420Y-19456841D01*
X31038800Y-19438286D01*
X31028450Y-19416374D01*
X31001713Y-19388291D01*
X30965053Y-19358949D01*
X30924936Y-19333260D01*
X30887828Y-19316138D01*
X30873156Y-19312430D01*
X30847660Y-19305150D01*
X30841950Y-19302404D01*
X30814264Y-19295290D01*
X30770594Y-19292788D01*
X30719879Y-19294606D01*
X30671055Y-19300454D01*
X30635575Y-19309115D01*
X30603519Y-19319166D01*
X30584180Y-19322671D01*
X30581600Y-19321531D01*
X30573359Y-19325792D01*
X30551969Y-19343700D01*
X30527977Y-19365811D01*
X30497393Y-19396797D01*
X30481381Y-19421754D01*
X30475265Y-19451226D01*
X30474355Y-19486768D01*
X30476845Y-19532936D01*
X30486370Y-19564195D01*
X30505752Y-19590449D01*
X30534292Y-19616785D01*
X30561021Y-19634980D01*
X30562550Y-19635705D01*
X30590644Y-19650099D01*
X30625445Y-19669927D01*
X30629225Y-19672200D01*
X30655440Y-19686316D01*
X30669657Y-19690563D01*
X30670500Y-19689536D01*
X30678256Y-19689547D01*
X30687371Y-19695892D01*
X30713758Y-19709460D01*
X30731494Y-19714053D01*
X30757387Y-19721143D01*
X30767539Y-19727006D01*
X30786167Y-19734143D01*
X30803850Y-19735800D01*
X30830225Y-19739798D01*
X30840891Y-19745325D01*
X30857062Y-19754915D01*
X30858883Y-19755155D01*
X30881369Y-19759185D01*
X30918181Y-19768542D01*
X30959580Y-19780438D01*
X30995824Y-19792083D01*
X31016402Y-19800261D01*
X31044985Y-19810375D01*
X31057850Y-19812000D01*
X31090018Y-19821536D01*
X31131662Y-19847034D01*
X31177439Y-19883825D01*
X31222006Y-19927238D01*
X31260022Y-19972607D01*
X31282930Y-20008705D01*
X31311666Y-20089278D01*
X31322698Y-20180495D01*
X31316009Y-20274769D01*
X31291581Y-20364513D01*
X31283810Y-20382929D01*
X31266355Y-20412642D01*
X31239853Y-20448401D01*
X31209475Y-20484297D01*
X31180392Y-20514423D01*
X31157773Y-20532871D01*
X31149924Y-20535900D01*
X31133733Y-20543746D01*
X31113213Y-20560238D01*
X31082239Y-20581695D01*
X31057155Y-20592089D01*
X31022323Y-20602780D01*
X30991735Y-20614152D01*
X30959543Y-20626524D01*
X30937200Y-20633948D01*
X30915257Y-20636678D01*
X30874387Y-20639096D01*
X30821060Y-20641067D01*
X30761746Y-20642460D01*
X30702918Y-20643140D01*
X30651047Y-20642975D01*
X30612602Y-20641831D01*
X30600650Y-20640876D01*
X30566529Y-20635103D01*
X30543500Y-20628685D01*
X30515641Y-20619467D01*
X30507504Y-20617498D01*
X30480263Y-20608047D01*
X30441783Y-20590320D01*
X30400362Y-20568691D01*
X30364301Y-20547535D01*
X30341902Y-20531225D01*
X30340057Y-20529258D01*
X30319537Y-20513337D01*
X30309035Y-20510500D01*
X30291973Y-20501447D01*
X30266541Y-20478165D01*
X30237575Y-20446467D01*
X30209912Y-20412166D01*
X30188388Y-20381076D01*
X30177842Y-20359009D01*
X30178170Y-20353217D01*
X30173267Y-20341202D01*
X30159222Y-20323394D01*
X30144529Y-20304058D01*
X30148021Y-20289803D01*
X30162397Y-20275643D01*
X30180714Y-20262288D01*
X30187900Y-20263095D01*
X30195898Y-20263349D01*
X30215269Y-20249544D01*
X30216475Y-20248493D01*
X30248049Y-20225375D01*
X30287180Y-20202931D01*
X30326636Y-20184544D01*
X30359186Y-20173596D01*
X30377298Y-20173269D01*
X30390388Y-20191788D01*
X30391100Y-20197054D01*
X30399116Y-20215909D01*
X30418749Y-20242039D01*
X30422098Y-20245739D01*
X30440503Y-20269532D01*
X30446181Y-20285378D01*
X30445381Y-20286885D01*
X30448385Y-20293521D01*
X30457278Y-20294600D01*
X30481390Y-20303649D01*
X30492894Y-20313884D01*
X30516663Y-20333122D01*
X30552980Y-20353932D01*
X30590194Y-20370159D01*
X30609188Y-20375311D01*
X30634362Y-20382925D01*
X30638750Y-20385133D01*
X30658863Y-20389655D01*
X30695279Y-20392347D01*
X30740741Y-20393290D01*
X30787992Y-20392562D01*
X30829774Y-20390242D01*
X30858833Y-20386410D01*
X30867882Y-20382637D01*
X30885144Y-20372727D01*
X30903024Y-20369871D01*
X30946634Y-20358092D01*
X30990674Y-20329872D01*
X31025039Y-20291881D01*
X31027681Y-20287585D01*
X31040920Y-20254124D01*
X31048672Y-20213338D01*
X31050311Y-20173971D01*
X31045208Y-20144765D01*
X31038592Y-20135721D01*
X31030950Y-20120998D01*
X31032504Y-20116712D01*
X31026487Y-20104496D01*
X31003472Y-20084362D01*
X30969115Y-20059878D01*
X30929073Y-20034611D01*
X30889001Y-20012130D01*
X30854556Y-19996003D01*
X30831393Y-19989800D01*
X30831332Y-19989800D01*
X30815944Y-19985414D01*
X30788801Y-19974989D01*
X30761579Y-19964085D01*
X30746700Y-19958808D01*
X30722257Y-19952776D01*
X30685052Y-19942861D01*
X30644726Y-19931720D01*
X30610923Y-19922011D01*
X30594300Y-19916790D01*
X30566280Y-19908165D01*
X30558383Y-19906309D01*
X30532080Y-19898305D01*
X30520283Y-19893620D01*
X30490278Y-19883146D01*
X30479099Y-19880368D01*
X30429956Y-19861747D01*
X30375680Y-19827386D01*
X30321888Y-19782549D01*
X30274198Y-19732498D01*
X30238228Y-19682498D01*
X30219596Y-19637810D01*
X30219460Y-19637120D01*
X30214958Y-19618460D01*
X30213300Y-19615150D01*
X30208572Y-19603840D01*
X30203052Y-19575285D01*
X30198115Y-19537548D01*
X30195982Y-19513550D01*
X30200420Y-19431101D01*
X30223165Y-19345932D01*
X30227813Y-19334184D01*
X30238817Y-19305451D01*
X30243985Y-19287883D01*
X30253517Y-19272583D01*
X30276848Y-19245843D01*
X30308641Y-19212922D01*
X30343556Y-19179079D01*
X30376255Y-19149574D01*
X30401400Y-19129666D01*
X30409257Y-19125048D01*
X30439700Y-19109767D01*
X30454600Y-19100822D01*
X30482943Y-19085926D01*
X30523280Y-19069012D01*
X30563227Y-19055199D01*
X30568900Y-19053579D01*
X30589210Y-19050913D01*
X30628409Y-19047971D01*
X30679993Y-19045191D01*
X30714950Y-19043755D01*
X30848737Y-19048881D01*
X30848737Y-19048881D01*
G37*
X30848737Y-19048881D02*
X30967922Y-19074658D01*
X31073003Y-19121312D01*
X31164476Y-19189067D01*
X31242837Y-19278150D01*
X31248350Y-19285912D01*
X31275935Y-19329992D01*
X31285349Y-19357282D01*
X31276481Y-19367437D01*
X31274895Y-19367500D01*
X31253020Y-19376442D01*
X31241963Y-19386593D01*
X31222745Y-19401718D01*
X31188084Y-19422498D01*
X31148605Y-19442889D01*
X31095761Y-19464354D01*
X31060778Y-19469022D01*
X31042420Y-19456841D01*
X31038800Y-19438286D01*
X31028450Y-19416374D01*
X31001713Y-19388291D01*
X30965053Y-19358949D01*
X30924936Y-19333260D01*
X30887828Y-19316138D01*
X30873156Y-19312430D01*
X30847660Y-19305150D01*
X30841950Y-19302404D01*
X30814264Y-19295290D01*
X30770594Y-19292788D01*
X30719879Y-19294606D01*
X30671055Y-19300454D01*
X30635575Y-19309115D01*
X30603519Y-19319166D01*
X30584180Y-19322671D01*
X30581600Y-19321531D01*
X30573359Y-19325792D01*
X30551969Y-19343700D01*
X30527977Y-19365811D01*
X30497393Y-19396797D01*
X30481381Y-19421754D01*
X30475265Y-19451226D01*
X30474355Y-19486768D01*
X30476845Y-19532936D01*
X30486370Y-19564195D01*
X30505752Y-19590449D01*
X30534292Y-19616785D01*
X30561021Y-19634980D01*
X30562550Y-19635705D01*
X30590644Y-19650099D01*
X30625445Y-19669927D01*
X30629225Y-19672200D01*
X30655440Y-19686316D01*
X30669657Y-19690563D01*
X30670500Y-19689536D01*
X30678256Y-19689547D01*
X30687371Y-19695892D01*
X30713758Y-19709460D01*
X30731494Y-19714053D01*
X30757387Y-19721143D01*
X30767539Y-19727006D01*
X30786167Y-19734143D01*
X30803850Y-19735800D01*
X30830225Y-19739798D01*
X30840891Y-19745325D01*
X30857062Y-19754915D01*
X30858883Y-19755155D01*
X30881369Y-19759185D01*
X30918181Y-19768542D01*
X30959580Y-19780438D01*
X30995824Y-19792083D01*
X31016402Y-19800261D01*
X31044985Y-19810375D01*
X31057850Y-19812000D01*
X31090018Y-19821536D01*
X31131662Y-19847034D01*
X31177439Y-19883825D01*
X31222006Y-19927238D01*
X31260022Y-19972607D01*
X31282930Y-20008705D01*
X31311666Y-20089278D01*
X31322698Y-20180495D01*
X31316009Y-20274769D01*
X31291581Y-20364513D01*
X31283810Y-20382929D01*
X31266355Y-20412642D01*
X31239853Y-20448401D01*
X31209475Y-20484297D01*
X31180392Y-20514423D01*
X31157773Y-20532871D01*
X31149924Y-20535900D01*
X31133733Y-20543746D01*
X31113213Y-20560238D01*
X31082239Y-20581695D01*
X31057155Y-20592089D01*
X31022323Y-20602780D01*
X30991735Y-20614152D01*
X30959543Y-20626524D01*
X30937200Y-20633948D01*
X30915257Y-20636678D01*
X30874387Y-20639096D01*
X30821060Y-20641067D01*
X30761746Y-20642460D01*
X30702918Y-20643140D01*
X30651047Y-20642975D01*
X30612602Y-20641831D01*
X30600650Y-20640876D01*
X30566529Y-20635103D01*
X30543500Y-20628685D01*
X30515641Y-20619467D01*
X30507504Y-20617498D01*
X30480263Y-20608047D01*
X30441783Y-20590320D01*
X30400362Y-20568691D01*
X30364301Y-20547535D01*
X30341902Y-20531225D01*
X30340057Y-20529258D01*
X30319537Y-20513337D01*
X30309035Y-20510500D01*
X30291973Y-20501447D01*
X30266541Y-20478165D01*
X30237575Y-20446467D01*
X30209912Y-20412166D01*
X30188388Y-20381076D01*
X30177842Y-20359009D01*
X30178170Y-20353217D01*
X30173267Y-20341202D01*
X30159222Y-20323394D01*
X30144529Y-20304058D01*
X30148021Y-20289803D01*
X30162397Y-20275643D01*
X30180714Y-20262288D01*
X30187900Y-20263095D01*
X30195898Y-20263349D01*
X30215269Y-20249544D01*
X30216475Y-20248493D01*
X30248049Y-20225375D01*
X30287180Y-20202931D01*
X30326636Y-20184544D01*
X30359186Y-20173596D01*
X30377298Y-20173269D01*
X30390388Y-20191788D01*
X30391100Y-20197054D01*
X30399116Y-20215909D01*
X30418749Y-20242039D01*
X30422098Y-20245739D01*
X30440503Y-20269532D01*
X30446181Y-20285378D01*
X30445381Y-20286885D01*
X30448385Y-20293521D01*
X30457278Y-20294600D01*
X30481390Y-20303649D01*
X30492894Y-20313884D01*
X30516663Y-20333122D01*
X30552980Y-20353932D01*
X30590194Y-20370159D01*
X30609188Y-20375311D01*
X30634362Y-20382925D01*
X30638750Y-20385133D01*
X30658863Y-20389655D01*
X30695279Y-20392347D01*
X30740741Y-20393290D01*
X30787992Y-20392562D01*
X30829774Y-20390242D01*
X30858833Y-20386410D01*
X30867882Y-20382637D01*
X30885144Y-20372727D01*
X30903024Y-20369871D01*
X30946634Y-20358092D01*
X30990674Y-20329872D01*
X31025039Y-20291881D01*
X31027681Y-20287585D01*
X31040920Y-20254124D01*
X31048672Y-20213338D01*
X31050311Y-20173971D01*
X31045208Y-20144765D01*
X31038592Y-20135721D01*
X31030950Y-20120998D01*
X31032504Y-20116712D01*
X31026487Y-20104496D01*
X31003472Y-20084362D01*
X30969115Y-20059878D01*
X30929073Y-20034611D01*
X30889001Y-20012130D01*
X30854556Y-19996003D01*
X30831393Y-19989800D01*
X30831332Y-19989800D01*
X30815944Y-19985414D01*
X30788801Y-19974989D01*
X30761579Y-19964085D01*
X30746700Y-19958808D01*
X30722257Y-19952776D01*
X30685052Y-19942861D01*
X30644726Y-19931720D01*
X30610923Y-19922011D01*
X30594300Y-19916790D01*
X30566280Y-19908165D01*
X30558383Y-19906309D01*
X30532080Y-19898305D01*
X30520283Y-19893620D01*
X30490278Y-19883146D01*
X30479099Y-19880368D01*
X30429956Y-19861747D01*
X30375680Y-19827386D01*
X30321888Y-19782549D01*
X30274198Y-19732498D01*
X30238228Y-19682498D01*
X30219596Y-19637810D01*
X30219460Y-19637120D01*
X30214958Y-19618460D01*
X30213300Y-19615150D01*
X30208572Y-19603840D01*
X30203052Y-19575285D01*
X30198115Y-19537548D01*
X30195982Y-19513550D01*
X30200420Y-19431101D01*
X30223165Y-19345932D01*
X30227813Y-19334184D01*
X30238817Y-19305451D01*
X30243985Y-19287883D01*
X30253517Y-19272583D01*
X30276848Y-19245843D01*
X30308641Y-19212922D01*
X30343556Y-19179079D01*
X30376255Y-19149574D01*
X30401400Y-19129666D01*
X30409257Y-19125048D01*
X30439700Y-19109767D01*
X30454600Y-19100822D01*
X30482943Y-19085926D01*
X30523280Y-19069012D01*
X30563227Y-19055199D01*
X30568900Y-19053579D01*
X30589210Y-19050913D01*
X30628409Y-19047971D01*
X30679993Y-19045191D01*
X30714950Y-19043755D01*
X30848737Y-19048881D01*
G36*
X21857588Y-18681700D02*
X21780944Y-18683287D01*
X21730176Y-18684854D01*
X21698393Y-18687409D01*
X21679184Y-18691608D01*
X21672550Y-18694400D01*
X21655587Y-18700208D01*
X21653500Y-18700750D01*
X21635613Y-18706558D01*
X21634450Y-18707100D01*
X21617291Y-18711564D01*
X21615110Y-18711862D01*
X21599736Y-18721048D01*
X21573060Y-18743270D01*
X21547237Y-18767536D01*
X21501602Y-18823568D01*
X21473001Y-18887493D01*
X21459063Y-18965484D01*
X21457053Y-19002375D01*
X21455052Y-19075400D01*
X21856700Y-19075400D01*
X21856700Y-19328755D01*
X21656675Y-19332252D01*
X21456650Y-19335750D01*
X21456776Y-20612100D01*
X21183600Y-20612100D01*
X21183600Y-19329400D01*
X20942300Y-19329400D01*
X20942300Y-19075400D01*
X21180019Y-19075400D01*
X21187477Y-18970625D01*
X21193231Y-18900198D01*
X21199970Y-18847583D01*
X21209386Y-18805201D01*
X21223171Y-18765473D01*
X21243020Y-18720822D01*
X21243503Y-18719800D01*
X21265169Y-18682011D01*
X21295559Y-18639007D01*
X21330272Y-18595890D01*
X21364906Y-18557765D01*
X21395059Y-18529734D01*
X21416331Y-18516902D01*
X21418751Y-18516600D01*
X21438906Y-18508457D01*
X21448395Y-18500725D01*
X21466600Y-18486443D01*
X21473160Y-18483785D01*
X21489951Y-18478367D01*
X21518469Y-18466696D01*
X21520150Y-18465959D01*
X21552742Y-18452960D01*
X21577300Y-18445353D01*
X21636948Y-18435674D01*
X21706880Y-18427694D01*
X21771979Y-18423055D01*
X21786850Y-18422587D01*
X21850350Y-18421350D01*
X21857588Y-18681700D01*
X21857588Y-18681700D01*
G37*
X21857588Y-18681700D02*
X21780944Y-18683287D01*
X21730176Y-18684854D01*
X21698393Y-18687409D01*
X21679184Y-18691608D01*
X21672550Y-18694400D01*
X21655587Y-18700208D01*
X21653500Y-18700750D01*
X21635613Y-18706558D01*
X21634450Y-18707100D01*
X21617291Y-18711564D01*
X21615110Y-18711862D01*
X21599736Y-18721048D01*
X21573060Y-18743270D01*
X21547237Y-18767536D01*
X21501602Y-18823568D01*
X21473001Y-18887493D01*
X21459063Y-18965484D01*
X21457053Y-19002375D01*
X21455052Y-19075400D01*
X21856700Y-19075400D01*
X21856700Y-19328755D01*
X21656675Y-19332252D01*
X21456650Y-19335750D01*
X21456776Y-20612100D01*
X21183600Y-20612100D01*
X21183600Y-19329400D01*
X20942300Y-19329400D01*
X20942300Y-19075400D01*
X21180019Y-19075400D01*
X21187477Y-18970625D01*
X21193231Y-18900198D01*
X21199970Y-18847583D01*
X21209386Y-18805201D01*
X21223171Y-18765473D01*
X21243020Y-18720822D01*
X21243503Y-18719800D01*
X21265169Y-18682011D01*
X21295559Y-18639007D01*
X21330272Y-18595890D01*
X21364906Y-18557765D01*
X21395059Y-18529734D01*
X21416331Y-18516902D01*
X21418751Y-18516600D01*
X21438906Y-18508457D01*
X21448395Y-18500725D01*
X21466600Y-18486443D01*
X21473160Y-18483785D01*
X21489951Y-18478367D01*
X21518469Y-18466696D01*
X21520150Y-18465959D01*
X21552742Y-18452960D01*
X21577300Y-18445353D01*
X21636948Y-18435674D01*
X21706880Y-18427694D01*
X21771979Y-18423055D01*
X21786850Y-18422587D01*
X21850350Y-18421350D01*
X21857588Y-18681700D01*
G36*
X22803013Y-19181638D02*
X22802254Y-19237203D01*
X22800545Y-19282714D01*
X22798161Y-19312575D01*
X22796117Y-19321316D01*
X22780757Y-19326327D01*
X22748738Y-19331948D01*
X22726402Y-19334778D01*
X22677558Y-19340727D01*
X22643907Y-19346846D01*
X22615329Y-19355407D01*
X22589298Y-19365548D01*
X22562520Y-19375901D01*
X22548394Y-19380200D01*
X22536053Y-19386909D01*
X22509631Y-19404213D01*
X22485399Y-19420971D01*
X22451589Y-19449446D01*
X22418529Y-19484750D01*
X22391642Y-19520171D01*
X22376353Y-19548992D01*
X22374702Y-19558000D01*
X22369572Y-19573058D01*
X22362404Y-19587688D01*
X22350231Y-19618544D01*
X22343397Y-19644838D01*
X22336892Y-19677661D01*
X22332712Y-19697700D01*
X22331714Y-19714473D01*
X22330747Y-19753618D01*
X22329845Y-19812106D01*
X22329039Y-19886908D01*
X22328365Y-19974996D01*
X22327855Y-20073342D01*
X22327571Y-20164425D01*
X22326600Y-20612100D01*
X22059900Y-20612100D01*
X22059900Y-19075400D01*
X22326600Y-19075400D01*
X22326600Y-19196799D01*
X22327855Y-19258231D01*
X22331549Y-19296482D01*
X22337575Y-19310612D01*
X22339507Y-19310221D01*
X22347764Y-19296464D01*
X22346536Y-19292734D01*
X22350417Y-19278195D01*
X22367501Y-19254461D01*
X22372243Y-19249162D01*
X22390727Y-19227251D01*
X22396938Y-19215653D01*
X22396056Y-19215099D01*
X22396282Y-19209092D01*
X22415456Y-19190549D01*
X22454427Y-19158688D01*
X22472963Y-19144198D01*
X22533181Y-19107848D01*
X22608098Y-19077784D01*
X22687149Y-19057679D01*
X22739648Y-19051480D01*
X22803447Y-19048422D01*
X22803013Y-19181638D01*
X22803013Y-19181638D01*
G37*
X22803013Y-19181638D02*
X22802254Y-19237203D01*
X22800545Y-19282714D01*
X22798161Y-19312575D01*
X22796117Y-19321316D01*
X22780757Y-19326327D01*
X22748738Y-19331948D01*
X22726402Y-19334778D01*
X22677558Y-19340727D01*
X22643907Y-19346846D01*
X22615329Y-19355407D01*
X22589298Y-19365548D01*
X22562520Y-19375901D01*
X22548394Y-19380200D01*
X22536053Y-19386909D01*
X22509631Y-19404213D01*
X22485399Y-19420971D01*
X22451589Y-19449446D01*
X22418529Y-19484750D01*
X22391642Y-19520171D01*
X22376353Y-19548992D01*
X22374702Y-19558000D01*
X22369572Y-19573058D01*
X22362404Y-19587688D01*
X22350231Y-19618544D01*
X22343397Y-19644838D01*
X22336892Y-19677661D01*
X22332712Y-19697700D01*
X22331714Y-19714473D01*
X22330747Y-19753618D01*
X22329845Y-19812106D01*
X22329039Y-19886908D01*
X22328365Y-19974996D01*
X22327855Y-20073342D01*
X22327571Y-20164425D01*
X22326600Y-20612100D01*
X22059900Y-20612100D01*
X22059900Y-19075400D01*
X22326600Y-19075400D01*
X22326600Y-19196799D01*
X22327855Y-19258231D01*
X22331549Y-19296482D01*
X22337575Y-19310612D01*
X22339507Y-19310221D01*
X22347764Y-19296464D01*
X22346536Y-19292734D01*
X22350417Y-19278195D01*
X22367501Y-19254461D01*
X22372243Y-19249162D01*
X22390727Y-19227251D01*
X22396938Y-19215653D01*
X22396056Y-19215099D01*
X22396282Y-19209092D01*
X22415456Y-19190549D01*
X22454427Y-19158688D01*
X22472963Y-19144198D01*
X22533181Y-19107848D01*
X22608098Y-19077784D01*
X22687149Y-19057679D01*
X22739648Y-19051480D01*
X22803447Y-19048422D01*
X22803013Y-19181638D01*
G36*
X23329900Y-20612100D02*
X23056797Y-20612100D01*
X23056797Y-19075400D01*
X23329900Y-19075400D01*
X23329900Y-20612100D01*
X23329900Y-20612100D01*
G37*
X23329900Y-20612100D02*
X23056797Y-20612100D01*
X23056797Y-19075400D01*
X23329900Y-19075400D01*
X23329900Y-20612100D01*
G36*
X24841200Y-19164472D02*
X24838390Y-19225906D01*
X24828053Y-19271623D01*
X24807330Y-19310875D01*
X24788236Y-19335750D01*
X24769512Y-19359956D01*
X24740657Y-19399293D01*
X24705845Y-19447904D01*
X24669250Y-19499932D01*
X24635048Y-19549519D01*
X24619962Y-19571846D01*
X24595554Y-19605892D01*
X24572929Y-19633680D01*
X24568363Y-19638521D01*
X24555385Y-19654493D01*
X24555858Y-19659600D01*
X24553465Y-19667992D01*
X24537791Y-19689366D01*
X24525015Y-19704491D01*
X24501679Y-19732871D01*
X24487540Y-19753536D01*
X24485600Y-19758596D01*
X24477732Y-19773094D01*
X24458310Y-19797130D01*
X24453336Y-19802604D01*
X24434924Y-19824755D01*
X24429124Y-19836717D01*
X24430312Y-19837400D01*
X24428319Y-19845362D01*
X24412400Y-19865393D01*
X24403050Y-19875500D01*
X24382744Y-19898737D01*
X24374744Y-19912228D01*
X24375917Y-19913600D01*
X24373888Y-19921692D01*
X24358030Y-19942196D01*
X24346602Y-19954875D01*
X24323005Y-19983027D01*
X24309274Y-20005164D01*
X24307858Y-20010469D01*
X24298964Y-20029615D01*
X24287497Y-20041639D01*
X24270855Y-20059956D01*
X24245401Y-20092996D01*
X24216158Y-20134182D01*
X24211105Y-20141619D01*
X24176838Y-20191417D01*
X24141034Y-20241890D01*
X24111601Y-20281900D01*
X24087698Y-20314747D01*
X24071571Y-20339541D01*
X24067343Y-20348575D01*
X24079329Y-20350895D01*
X24113707Y-20353011D01*
X24167469Y-20354852D01*
X24237607Y-20356346D01*
X24321113Y-20357423D01*
X24414980Y-20358010D01*
X24470051Y-20358100D01*
X24873603Y-20358100D01*
X24873114Y-20481925D01*
X24872624Y-20605750D01*
X24281824Y-20609048D01*
X23691023Y-20612347D01*
X23691865Y-20520148D01*
X23695568Y-20457401D01*
X23707967Y-20408862D01*
X23733005Y-20364618D01*
X23772739Y-20316825D01*
X23790426Y-20294603D01*
X23795017Y-20282591D01*
X23793450Y-20281900D01*
X23793680Y-20273852D01*
X23808014Y-20253841D01*
X23814026Y-20246975D01*
X23842107Y-20212795D01*
X23871300Y-20172648D01*
X23876727Y-20164511D01*
X23897392Y-20135804D01*
X23913335Y-20118839D01*
X23917275Y-20116886D01*
X23926400Y-20106902D01*
X23926800Y-20102933D01*
X23932512Y-20086709D01*
X23950769Y-20058476D01*
X23983248Y-20015850D01*
X24020190Y-19970283D01*
X24039884Y-19944254D01*
X24048441Y-19928475D01*
X24047450Y-19926300D01*
X24049209Y-19917713D01*
X24063921Y-19895948D01*
X24074709Y-19882316D01*
X24119648Y-19826596D01*
X24149035Y-19787155D01*
X24164549Y-19761612D01*
X24168100Y-19749666D01*
X24174900Y-19736319D01*
X24177625Y-19735713D01*
X24189701Y-19725963D01*
X24209055Y-19701470D01*
X24218172Y-19688088D01*
X24245985Y-19648757D01*
X24275349Y-19611890D01*
X24280873Y-19605625D01*
X24298487Y-19583386D01*
X24303013Y-19571382D01*
X24301450Y-19570700D01*
X24301680Y-19562652D01*
X24316014Y-19542641D01*
X24322026Y-19535775D01*
X24350107Y-19501595D01*
X24379300Y-19461448D01*
X24384727Y-19453311D01*
X24405392Y-19424604D01*
X24421335Y-19407639D01*
X24425275Y-19405686D01*
X24434272Y-19395599D01*
X24434800Y-19390725D01*
X24442655Y-19370468D01*
X24455818Y-19352625D01*
X24460918Y-19345995D01*
X24461168Y-19340763D01*
X24454036Y-19336763D01*
X24436993Y-19333831D01*
X24407508Y-19331802D01*
X24363051Y-19330509D01*
X24301092Y-19329788D01*
X24219100Y-19329473D01*
X24114545Y-19329400D01*
X23723600Y-19329400D01*
X23723600Y-19075400D01*
X24841200Y-19075400D01*
X24841200Y-19164472D01*
X24841200Y-19164472D01*
G37*
X24841200Y-19164472D02*
X24838390Y-19225906D01*
X24828053Y-19271623D01*
X24807330Y-19310875D01*
X24788236Y-19335750D01*
X24769512Y-19359956D01*
X24740657Y-19399293D01*
X24705845Y-19447904D01*
X24669250Y-19499932D01*
X24635048Y-19549519D01*
X24619962Y-19571846D01*
X24595554Y-19605892D01*
X24572929Y-19633680D01*
X24568363Y-19638521D01*
X24555385Y-19654493D01*
X24555858Y-19659600D01*
X24553465Y-19667992D01*
X24537791Y-19689366D01*
X24525015Y-19704491D01*
X24501679Y-19732871D01*
X24487540Y-19753536D01*
X24485600Y-19758596D01*
X24477732Y-19773094D01*
X24458310Y-19797130D01*
X24453336Y-19802604D01*
X24434924Y-19824755D01*
X24429124Y-19836717D01*
X24430312Y-19837400D01*
X24428319Y-19845362D01*
X24412400Y-19865393D01*
X24403050Y-19875500D01*
X24382744Y-19898737D01*
X24374744Y-19912228D01*
X24375917Y-19913600D01*
X24373888Y-19921692D01*
X24358030Y-19942196D01*
X24346602Y-19954875D01*
X24323005Y-19983027D01*
X24309274Y-20005164D01*
X24307858Y-20010469D01*
X24298964Y-20029615D01*
X24287497Y-20041639D01*
X24270855Y-20059956D01*
X24245401Y-20092996D01*
X24216158Y-20134182D01*
X24211105Y-20141619D01*
X24176838Y-20191417D01*
X24141034Y-20241890D01*
X24111601Y-20281900D01*
X24087698Y-20314747D01*
X24071571Y-20339541D01*
X24067343Y-20348575D01*
X24079329Y-20350895D01*
X24113707Y-20353011D01*
X24167469Y-20354852D01*
X24237607Y-20356346D01*
X24321113Y-20357423D01*
X24414980Y-20358010D01*
X24470051Y-20358100D01*
X24873603Y-20358100D01*
X24873114Y-20481925D01*
X24872624Y-20605750D01*
X24281824Y-20609048D01*
X23691023Y-20612347D01*
X23691865Y-20520148D01*
X23695568Y-20457401D01*
X23707967Y-20408862D01*
X23733005Y-20364618D01*
X23772739Y-20316825D01*
X23790426Y-20294603D01*
X23795017Y-20282591D01*
X23793450Y-20281900D01*
X23793680Y-20273852D01*
X23808014Y-20253841D01*
X23814026Y-20246975D01*
X23842107Y-20212795D01*
X23871300Y-20172648D01*
X23876727Y-20164511D01*
X23897392Y-20135804D01*
X23913335Y-20118839D01*
X23917275Y-20116886D01*
X23926400Y-20106902D01*
X23926800Y-20102933D01*
X23932512Y-20086709D01*
X23950769Y-20058476D01*
X23983248Y-20015850D01*
X24020190Y-19970283D01*
X24039884Y-19944254D01*
X24048441Y-19928475D01*
X24047450Y-19926300D01*
X24049209Y-19917713D01*
X24063921Y-19895948D01*
X24074709Y-19882316D01*
X24119648Y-19826596D01*
X24149035Y-19787155D01*
X24164549Y-19761612D01*
X24168100Y-19749666D01*
X24174900Y-19736319D01*
X24177625Y-19735713D01*
X24189701Y-19725963D01*
X24209055Y-19701470D01*
X24218172Y-19688088D01*
X24245985Y-19648757D01*
X24275349Y-19611890D01*
X24280873Y-19605625D01*
X24298487Y-19583386D01*
X24303013Y-19571382D01*
X24301450Y-19570700D01*
X24301680Y-19562652D01*
X24316014Y-19542641D01*
X24322026Y-19535775D01*
X24350107Y-19501595D01*
X24379300Y-19461448D01*
X24384727Y-19453311D01*
X24405392Y-19424604D01*
X24421335Y-19407639D01*
X24425275Y-19405686D01*
X24434272Y-19395599D01*
X24434800Y-19390725D01*
X24442655Y-19370468D01*
X24455818Y-19352625D01*
X24460918Y-19345995D01*
X24461168Y-19340763D01*
X24454036Y-19336763D01*
X24436993Y-19333831D01*
X24407508Y-19331802D01*
X24363051Y-19330509D01*
X24301092Y-19329788D01*
X24219100Y-19329473D01*
X24114545Y-19329400D01*
X23723600Y-19329400D01*
X23723600Y-19075400D01*
X24841200Y-19075400D01*
X24841200Y-19164472D01*
G36*
X26250900Y-19166160D02*
X26249633Y-19216977D01*
X26243870Y-19253005D01*
X26230664Y-19284811D01*
X26207236Y-19322702D01*
X26180726Y-19360537D01*
X26156821Y-19391099D01*
X26143736Y-19404947D01*
X26127223Y-19425010D01*
X26123841Y-19435730D01*
X26115731Y-19453074D01*
X26095396Y-19479820D01*
X26085097Y-19491325D01*
X26063996Y-19515798D01*
X26054782Y-19530595D01*
X26055782Y-19532600D01*
X26053871Y-19540559D01*
X26038003Y-19560584D01*
X26028650Y-19570700D01*
X26008314Y-19593941D01*
X26000248Y-19607430D01*
X26001387Y-19608800D01*
X25999839Y-19616813D01*
X25984538Y-19636740D01*
X25978363Y-19643595D01*
X25957308Y-19668549D01*
X25946485Y-19685767D01*
X25946100Y-19687603D01*
X25938397Y-19701830D01*
X25918875Y-19727369D01*
X25906684Y-19741708D01*
X25885202Y-19767792D01*
X25874602Y-19783985D01*
X25874850Y-19786600D01*
X25873115Y-19794750D01*
X25858442Y-19814435D01*
X25857807Y-19815175D01*
X25842933Y-19833130D01*
X25825537Y-19855812D01*
X25802934Y-19886946D01*
X25772438Y-19930257D01*
X25731365Y-19989470D01*
X25712798Y-20016374D01*
X25682958Y-20058181D01*
X25656294Y-20092953D01*
X25637767Y-20114277D01*
X25635486Y-20116354D01*
X25619109Y-20136384D01*
X25615841Y-20146930D01*
X25607731Y-20164274D01*
X25587396Y-20191020D01*
X25577097Y-20202525D01*
X25555996Y-20226998D01*
X25546782Y-20241795D01*
X25547782Y-20243800D01*
X25545871Y-20251759D01*
X25530003Y-20271784D01*
X25520650Y-20281900D01*
X25500553Y-20305112D01*
X25493013Y-20318610D01*
X25494428Y-20320000D01*
X25496281Y-20327768D01*
X25489049Y-20338869D01*
X25487083Y-20344147D01*
X25492451Y-20348417D01*
X25507546Y-20351816D01*
X25534760Y-20354479D01*
X25576484Y-20356545D01*
X25635111Y-20358150D01*
X25713032Y-20359429D01*
X25812640Y-20360521D01*
X25877858Y-20361094D01*
X26282328Y-20364450D01*
X26282816Y-20488275D01*
X26283303Y-20612100D01*
X25092510Y-20612100D01*
X25097030Y-20512617D01*
X25100295Y-20460573D01*
X25106037Y-20425742D01*
X25116817Y-20399936D01*
X25135194Y-20374966D01*
X25142825Y-20366125D01*
X25166779Y-20337121D01*
X25181672Y-20315774D01*
X25184100Y-20309903D01*
X25191967Y-20295405D01*
X25211389Y-20271369D01*
X25216363Y-20265895D01*
X25234775Y-20243744D01*
X25240575Y-20231782D01*
X25239387Y-20231100D01*
X25240820Y-20223001D01*
X25255869Y-20202879D01*
X25261767Y-20196175D01*
X25287815Y-20164140D01*
X25317499Y-20123091D01*
X25330150Y-20104100D01*
X25358241Y-20063236D01*
X25387199Y-20025325D01*
X25398532Y-20012025D01*
X25416730Y-19989707D01*
X25422577Y-19977741D01*
X25421510Y-19977100D01*
X25422488Y-19968980D01*
X25436777Y-19949359D01*
X25437492Y-19948525D01*
X25463022Y-19917018D01*
X25495129Y-19873751D01*
X25536238Y-19815369D01*
X25582399Y-19747919D01*
X25611908Y-19706029D01*
X25638466Y-19671134D01*
X25657041Y-19649792D01*
X25659097Y-19647939D01*
X25675859Y-19627810D01*
X25679458Y-19616769D01*
X25687568Y-19599425D01*
X25707903Y-19572679D01*
X25718202Y-19561175D01*
X25739303Y-19536701D01*
X25748517Y-19521904D01*
X25747517Y-19519900D01*
X25748865Y-19511804D01*
X25763863Y-19491689D01*
X25769767Y-19484975D01*
X25794531Y-19455049D01*
X25821510Y-19418634D01*
X25846115Y-19382455D01*
X25863759Y-19353234D01*
X25869900Y-19338242D01*
X25857726Y-19335990D01*
X25823310Y-19333950D01*
X25769809Y-19332198D01*
X25700380Y-19330807D01*
X25618181Y-19329856D01*
X25526368Y-19329419D01*
X25501600Y-19329400D01*
X25133300Y-19329400D01*
X25133300Y-19075400D01*
X26250900Y-19075400D01*
X26250900Y-19166160D01*
X26250900Y-19166160D01*
G37*
X26250900Y-19166160D02*
X26249633Y-19216977D01*
X26243870Y-19253005D01*
X26230664Y-19284811D01*
X26207236Y-19322702D01*
X26180726Y-19360537D01*
X26156821Y-19391099D01*
X26143736Y-19404947D01*
X26127223Y-19425010D01*
X26123841Y-19435730D01*
X26115731Y-19453074D01*
X26095396Y-19479820D01*
X26085097Y-19491325D01*
X26063996Y-19515798D01*
X26054782Y-19530595D01*
X26055782Y-19532600D01*
X26053871Y-19540559D01*
X26038003Y-19560584D01*
X26028650Y-19570700D01*
X26008314Y-19593941D01*
X26000248Y-19607430D01*
X26001387Y-19608800D01*
X25999839Y-19616813D01*
X25984538Y-19636740D01*
X25978363Y-19643595D01*
X25957308Y-19668549D01*
X25946485Y-19685767D01*
X25946100Y-19687603D01*
X25938397Y-19701830D01*
X25918875Y-19727369D01*
X25906684Y-19741708D01*
X25885202Y-19767792D01*
X25874602Y-19783985D01*
X25874850Y-19786600D01*
X25873115Y-19794750D01*
X25858442Y-19814435D01*
X25857807Y-19815175D01*
X25842933Y-19833130D01*
X25825537Y-19855812D01*
X25802934Y-19886946D01*
X25772438Y-19930257D01*
X25731365Y-19989470D01*
X25712798Y-20016374D01*
X25682958Y-20058181D01*
X25656294Y-20092953D01*
X25637767Y-20114277D01*
X25635486Y-20116354D01*
X25619109Y-20136384D01*
X25615841Y-20146930D01*
X25607731Y-20164274D01*
X25587396Y-20191020D01*
X25577097Y-20202525D01*
X25555996Y-20226998D01*
X25546782Y-20241795D01*
X25547782Y-20243800D01*
X25545871Y-20251759D01*
X25530003Y-20271784D01*
X25520650Y-20281900D01*
X25500553Y-20305112D01*
X25493013Y-20318610D01*
X25494428Y-20320000D01*
X25496281Y-20327768D01*
X25489049Y-20338869D01*
X25487083Y-20344147D01*
X25492451Y-20348417D01*
X25507546Y-20351816D01*
X25534760Y-20354479D01*
X25576484Y-20356545D01*
X25635111Y-20358150D01*
X25713032Y-20359429D01*
X25812640Y-20360521D01*
X25877858Y-20361094D01*
X26282328Y-20364450D01*
X26282816Y-20488275D01*
X26283303Y-20612100D01*
X25092510Y-20612100D01*
X25097030Y-20512617D01*
X25100295Y-20460573D01*
X25106037Y-20425742D01*
X25116817Y-20399936D01*
X25135194Y-20374966D01*
X25142825Y-20366125D01*
X25166779Y-20337121D01*
X25181672Y-20315774D01*
X25184100Y-20309903D01*
X25191967Y-20295405D01*
X25211389Y-20271369D01*
X25216363Y-20265895D01*
X25234775Y-20243744D01*
X25240575Y-20231782D01*
X25239387Y-20231100D01*
X25240820Y-20223001D01*
X25255869Y-20202879D01*
X25261767Y-20196175D01*
X25287815Y-20164140D01*
X25317499Y-20123091D01*
X25330150Y-20104100D01*
X25358241Y-20063236D01*
X25387199Y-20025325D01*
X25398532Y-20012025D01*
X25416730Y-19989707D01*
X25422577Y-19977741D01*
X25421510Y-19977100D01*
X25422488Y-19968980D01*
X25436777Y-19949359D01*
X25437492Y-19948525D01*
X25463022Y-19917018D01*
X25495129Y-19873751D01*
X25536238Y-19815369D01*
X25582399Y-19747919D01*
X25611908Y-19706029D01*
X25638466Y-19671134D01*
X25657041Y-19649792D01*
X25659097Y-19647939D01*
X25675859Y-19627810D01*
X25679458Y-19616769D01*
X25687568Y-19599425D01*
X25707903Y-19572679D01*
X25718202Y-19561175D01*
X25739303Y-19536701D01*
X25748517Y-19521904D01*
X25747517Y-19519900D01*
X25748865Y-19511804D01*
X25763863Y-19491689D01*
X25769767Y-19484975D01*
X25794531Y-19455049D01*
X25821510Y-19418634D01*
X25846115Y-19382455D01*
X25863759Y-19353234D01*
X25869900Y-19338242D01*
X25857726Y-19335990D01*
X25823310Y-19333950D01*
X25769809Y-19332198D01*
X25700380Y-19330807D01*
X25618181Y-19329856D01*
X25526368Y-19329419D01*
X25501600Y-19329400D01*
X25133300Y-19329400D01*
X25133300Y-19075400D01*
X26250900Y-19075400D01*
X26250900Y-19166160D01*
G36*
X30327600Y-20529550D02*
X30321250Y-20535900D01*
X30314900Y-20529550D01*
X30321250Y-20523200D01*
X30327600Y-20529550D01*
X30327600Y-20529550D01*
G37*
X30327600Y-20529550D02*
X30321250Y-20535900D01*
X30314900Y-20529550D01*
X30321250Y-20523200D01*
X30327600Y-20529550D01*
G36*
X29819600Y-20224750D02*
X29813250Y-20231100D01*
X29806900Y-20224750D01*
X29813250Y-20218400D01*
X29819600Y-20224750D01*
X29819600Y-20224750D01*
G37*
X29819600Y-20224750D02*
X29813250Y-20231100D01*
X29806900Y-20224750D01*
X29813250Y-20218400D01*
X29819600Y-20224750D01*
G36*
X30429200Y-19107150D02*
X30422850Y-19113500D01*
X30416500Y-19107150D01*
X30422850Y-19100800D01*
X30429200Y-19107150D01*
X30429200Y-19107150D01*
G37*
X30429200Y-19107150D02*
X30422850Y-19113500D01*
X30416500Y-19107150D01*
X30422850Y-19100800D01*
X30429200Y-19107150D01*
G36*
X23238464Y-18445242D02*
X23266597Y-18453535D01*
X23293759Y-18473273D01*
X23316133Y-18494604D01*
X23347700Y-18528067D01*
X23364342Y-18554891D01*
X23370421Y-18584967D01*
X23370602Y-18618200D01*
X23366780Y-18668548D01*
X23356073Y-18703714D01*
X23334610Y-18733735D01*
X23320476Y-18748179D01*
X23289558Y-18773880D01*
X23258510Y-18786508D01*
X23215142Y-18790874D01*
X23212064Y-18790973D01*
X23170379Y-18790946D01*
X23137484Y-18788671D01*
X23126700Y-18786573D01*
X23092631Y-18765870D01*
X23057589Y-18730719D01*
X23029570Y-18690433D01*
X23017238Y-18659061D01*
X23015466Y-18622978D01*
X23020593Y-18582844D01*
X23030612Y-18546626D01*
X23043515Y-18522294D01*
X23053126Y-18516600D01*
X23061457Y-18511640D01*
X23059571Y-18508738D01*
X23060514Y-18494987D01*
X23067470Y-18486513D01*
X23107050Y-18459603D01*
X23155487Y-18446395D01*
X23198658Y-18443763D01*
X23238464Y-18445242D01*
X23238464Y-18445242D01*
G37*
X23238464Y-18445242D02*
X23266597Y-18453535D01*
X23293759Y-18473273D01*
X23316133Y-18494604D01*
X23347700Y-18528067D01*
X23364342Y-18554891D01*
X23370421Y-18584967D01*
X23370602Y-18618200D01*
X23366780Y-18668548D01*
X23356073Y-18703714D01*
X23334610Y-18733735D01*
X23320476Y-18748179D01*
X23289558Y-18773880D01*
X23258510Y-18786508D01*
X23215142Y-18790874D01*
X23212064Y-18790973D01*
X23170379Y-18790946D01*
X23137484Y-18788671D01*
X23126700Y-18786573D01*
X23092631Y-18765870D01*
X23057589Y-18730719D01*
X23029570Y-18690433D01*
X23017238Y-18659061D01*
X23015466Y-18622978D01*
X23020593Y-18582844D01*
X23030612Y-18546626D01*
X23043515Y-18522294D01*
X23053126Y-18516600D01*
X23061457Y-18511640D01*
X23059571Y-18508738D01*
X23060514Y-18494987D01*
X23067470Y-18486513D01*
X23107050Y-18459603D01*
X23155487Y-18446395D01*
X23198658Y-18443763D01*
X23238464Y-18445242D01*
M02*
